<?xml version="1.0" encoding="utf-8"?>
<!-- Generator: Adobe Illustrator 27.5.0, SVG Export Plug-In . SVG Version: 6.00 Build 0)  -->
<svg version="1.1" xmlns="http://www.w3.org/2000/svg" xmlns:xlink="http://www.w3.org/1999/xlink" x="0px" y="0px"
	 viewBox="0 0 500 500" style="enable-background:new 0 0 500 500;" xml:space="preserve">
<g id="BACKGROUND">
	<g>
		<defs>
			<rect id="SVGID_1_" width="500" height="500"/>
		</defs>
		<use xlink:href="#SVGID_1_"  style="overflow:visible;fill:#EBEBEB;"/>
		<clipPath id="SVGID_00000003083178283176242370000008152928827039923342_">
			<use xlink:href="#SVGID_1_"  style="overflow:visible;"/>
		</clipPath>
	</g>
	<g>
		<rect style="fill:#F7F7F5;" width="500" height="500"/>
	</g>
</g>
<g id="OBJECTS">
	<g>
		<g>
			<path style="fill:#17CEC9;" d="M102.783,339.288c0,0,0.261-11.728-2.345-12.51c-2.606-0.782-15.637-0.261-12.249-8.6
				c3.388-8.34,13.552-2.606,13.552-2.606s-5.734-14.855,1.303-17.983c7.037-3.127,12.492,6.187,13.813,15.246
				c1.368,9.382,1.173,11.923,1.173,11.923s5.603-3.453,8.47-2.932c2.867,0.521,5.734,7.297,3.388,9.122
				c-2.346,1.824-11.728,4.691-11.728,4.691v3.649H102.783z"/>
			<path style="fill:#19B2AA;" d="M110.248,338.674c0.076-0.823,0.104-1.65,0.064-2.47c-0.37-7.596-4.261-25.383-5.373-31.127
				c-0.601-3.106,1.29-5.073,3.154-6.225c-1.361-0.439-2.834-0.395-4.389,0.296c-6.67,2.964-0.66,17.922-0.66,17.922
				s-10.992-6.602-14.204,1.303c-3.211,7.905,9.923,7.702,12.393,8.443c2.47,0.741,2.223,11.858,2.223,11.858H110.248z"/>
			<path style="fill:#4F454D;" d="M118.66,339.787h-16.388l0.011-0.511c0.104-4.712-0.444-11.556-1.989-12.02
				c-0.452-0.136-1.326-0.237-2.337-0.355c-3.376-0.395-8.478-0.99-10.229-3.948c-0.794-1.343-0.795-3.013-0.003-4.964
				c0.908-2.234,2.368-3.717,4.337-4.403c3.228-1.13,6.963,0.178,8.796,0.995c-1.222-3.66-4.283-14.665,1.981-17.449
				c2.16-0.96,4.285-0.879,6.312,0.238c4.472,2.466,7.34,9.508,8.198,15.393c0.946,6.485,1.149,9.718,1.183,11.122
				c1.672-0.941,5.664-2.984,8.055-2.551c1.995,0.363,3.822,3.166,4.436,5.667c0.484,1.972,0.182,3.555-0.83,4.342
				c-2.155,1.677-9.771,4.113-11.535,4.664V339.787z M103.292,338.787h14.368v-3.519l0.354-0.108
				c0.093-0.028,9.32-2.859,11.566-4.606c0.676-0.526,0.854-1.766,0.473-3.314c-0.593-2.416-2.262-4.67-3.644-4.921
				c-2.2-0.402-6.605,1.933-8.118,2.865l-0.831,0.512l0.07-0.975c0.002-0.025,0.167-2.653-1.169-11.814
				c-0.989-6.778-4.08-12.67-7.691-14.661c-1.739-0.959-3.563-1.027-5.424-0.2c-6.522,2.898-1.095,17.201-1.04,17.346l0.501,1.298
				l-1.212-0.683c-0.051-0.028-5.152-2.854-9.106-1.477c-1.685,0.589-2.942,1.88-3.737,3.836c-0.678,1.669-0.699,3.003-0.063,4.078
				c1.497,2.531,6.304,3.093,9.484,3.464c1.102,0.129,1.972,0.23,2.508,0.392C103.219,327.09,103.326,335.959,103.292,338.787z"/>
		</g>
		<g>
			<path style="fill:#4F454D;" d="M108.116,304.438c-0.108,0-0.214-0.035-0.302-0.102c-0.11-0.083-0.18-0.207-0.195-0.344
				l-0.306-2.782c-0.03-0.275,0.168-0.521,0.442-0.552c0.278-0.027,0.521,0.168,0.552,0.442l0.249,2.257l2.112-0.351
				c0.274-0.049,0.53,0.14,0.575,0.411c0.045,0.272-0.139,0.53-0.411,0.575l-2.634,0.438
				C108.171,304.435,108.144,304.438,108.116,304.438z"/>
		</g>
		<g>
			<path style="fill:#4F454D;" d="M114.242,322.407c-0.033,0-0.066-0.003-0.1-0.01l-2.616-0.532
				c-0.135-0.027-0.252-0.109-0.325-0.226c-0.073-0.117-0.094-0.258-0.06-0.392l0.708-2.708c0.07-0.268,0.343-0.43,0.61-0.356
				c0.267,0.069,0.427,0.343,0.357,0.61l-0.575,2.196l2.099,0.427c0.271,0.056,0.445,0.319,0.39,0.59
				C114.683,322.244,114.475,322.407,114.242,322.407z"/>
		</g>
		<g>
			<path style="fill:#4F454D;" d="M114.144,334.392c-0.104,0-0.206-0.032-0.291-0.094l-2.275-1.63
				c-0.225-0.16-0.276-0.473-0.115-0.697c0.161-0.226,0.473-0.277,0.697-0.115l1.846,1.322l1.15-1.807
				c0.149-0.232,0.457-0.301,0.69-0.153c0.233,0.148,0.302,0.457,0.153,0.69l-1.434,2.252c-0.074,0.116-0.192,0.196-0.327,0.223
				C114.207,334.389,114.175,334.392,114.144,334.392z"/>
		</g>
		<g>
			<path style="fill:#4F454D;" d="M112.095,300.615c-0.088,0-0.176-0.023-0.254-0.069c-0.118-0.07-0.203-0.185-0.233-0.319
				l-0.623-2.728c-0.062-0.27,0.107-0.537,0.376-0.599c0.267-0.064,0.537,0.106,0.599,0.376l0.505,2.213l2.059-0.591
				c0.266-0.078,0.542,0.077,0.618,0.343c0.076,0.266-0.077,0.542-0.343,0.618l-2.566,0.736
				C112.188,300.608,112.142,300.615,112.095,300.615z"/>
		</g>
		<g>
			<path style="fill:#4F454D;" d="M123.199,322.716c-0.007,0-0.015,0-0.022-0.001l-2.796-0.123c-0.276-0.013-0.49-0.246-0.478-0.522
				c0.012-0.275,0.276-0.503,0.521-0.477l2.269,0.101l-0.022-2.143c-0.003-0.275,0.219-0.502,0.495-0.505c0.002,0,0.004,0,0.005,0
				c0.274,0,0.497,0.221,0.5,0.495l0.028,2.67c0.001,0.137-0.054,0.269-0.152,0.364
				C123.453,322.666,123.329,322.716,123.199,322.716z"/>
		</g>
		<g>
			<path style="fill:#4F454D;" d="M123.023,332.54c-0.026,0-0.053-0.002-0.08-0.006c-0.272-0.044-0.458-0.301-0.414-0.573
				l0.424-2.636c0.022-0.136,0.099-0.257,0.212-0.334c0.114-0.076,0.255-0.105,0.388-0.075l2.734,0.595
				c0.27,0.059,0.441,0.325,0.382,0.595c-0.059,0.268-0.324,0.439-0.595,0.382l-2.218-0.482l-0.34,2.114
				C123.477,332.365,123.264,332.54,123.023,332.54z"/>
		</g>
		<g>
			<path style="fill:#4F454D;" d="M127.489,327.836c-0.131,0-0.262-0.051-0.36-0.153l-1.852-1.923
				c-0.095-0.099-0.146-0.232-0.139-0.37c0.006-0.137,0.069-0.266,0.173-0.355l2.12-1.827c0.209-0.18,0.524-0.158,0.706,0.053
				c0.18,0.209,0.157,0.524-0.052,0.705l-1.72,1.482l1.485,1.542c0.191,0.199,0.186,0.516-0.014,0.707
				C127.739,327.789,127.614,327.836,127.489,327.836z"/>
		</g>
		<g>
			<path style="fill:#4F454D;" d="M96.254,321.962c-0.097,0-0.194-0.028-0.28-0.086c-0.229-0.155-0.288-0.466-0.133-0.694
				l1.274-1.88l-1.836-1.103c-0.237-0.143-0.313-0.449-0.171-0.686c0.142-0.234,0.449-0.311,0.686-0.171l2.289,1.375
				c0.118,0.071,0.201,0.186,0.231,0.321c0.03,0.134,0.002,0.274-0.074,0.388l-1.571,2.316
				C96.572,321.885,96.414,321.962,96.254,321.962z"/>
		</g>
		<g>
			<path style="fill:#4F454D;" d="M110.38,313.43c-0.074,0-0.147-0.017-0.216-0.049c-0.124-0.06-0.218-0.167-0.26-0.298
				l-0.859-2.663c-0.085-0.263,0.06-0.544,0.323-0.629c0.263-0.086,0.544,0.06,0.629,0.322l0.696,2.16l2-0.768
				c0.256-0.099,0.546,0.03,0.646,0.287c0.099,0.258-0.03,0.547-0.288,0.647l-2.492,0.958
				C110.502,313.419,110.441,313.43,110.38,313.43z"/>
		</g>
		<g>
			<g>
				<g>
					<g>
						<polygon style="fill:#9A54A8;" points="122.343,363.662 93.153,363.662 90.015,340.647 125.481,340.647 						"/>
						<path style="fill:#4F454D;" d="M122.779,364.162H92.716l-3.274-24.015h36.612L122.779,364.162z M93.589,363.162h28.317
							l3.002-22.015H90.587L93.589,363.162z"/>
					</g>
					<path style="fill:#B472C4;" d="M90.647,341.527l0.23,3.619c2.439-0.803,5.1-1.249,7.889-1.249
						c11.718,0,20.461,5.2,20.461,14.816c0,0.703-0.057,1.394-0.155,2.075l-1.165,1.781h3.915l3.026-21.043H90.647z"/>
				</g>
				<g>
					<g>
						<rect x="105.101" y="340.924" style="fill:#4F454D;" width="0.712" height="22.738"/>
					</g>
					<g>
						
							<rect x="99.847" y="341.161" transform="matrix(0.9994 -0.0351 0.0351 0.9994 -12.323 3.7391)" style="fill:#4F454D;" width="0.711" height="22.508"/>
					</g>
					<g>
						
							<rect x="95.11" y="340.898" transform="matrix(0.9978 -0.0667 0.0667 0.9978 -23.2774 7.1493)" style="fill:#4F454D;" width="0.711" height="22.789"/>
					</g>
				</g>
				<g>
					<g>
						<rect x="110.247" y="340.924" style="fill:#4F454D;" width="0.712" height="22.738"/>
					</g>
					<g>
						
							<rect x="104.603" y="352.059" transform="matrix(0.0357 -0.9994 0.9994 0.0357 -240.4695 455.6166)" style="fill:#4F454D;" width="22.508" height="0.711"/>
					</g>
					<g>
						
							<rect x="109.2" y="351.937" transform="matrix(0.0658 -0.9978 0.9978 0.0658 -238.8675 449.455)" style="fill:#4F454D;" width="22.789" height="0.712"/>
					</g>
				</g>
			</g>
			<g>
				<path style="fill:#EDEBED;" d="M126.633,340.434L126.633,340.434c0.046-0.723-0.528-1.334-1.252-1.334H90.115
					c-0.724,0-1.298,0.611-1.252,1.334l0,0c0.042,0.661,0.59,1.175,1.252,1.175h35.266
					C126.043,341.608,126.591,341.094,126.633,340.434z"/>
				<path style="fill:#4F454D;" d="M125.381,342.108H90.115c-0.923,0-1.692-0.722-1.751-1.643c-0.031-0.482,0.141-0.96,0.472-1.313
					c0.33-0.352,0.796-0.554,1.279-0.554h35.266c0.483,0,0.949,0.202,1.279,0.554c0.33,0.353,0.502,0.83,0.472,1.312v0.001
					C127.073,341.387,126.304,342.108,125.381,342.108z M90.115,339.6c-0.21,0-0.406,0.085-0.55,0.238
					c-0.144,0.153-0.216,0.354-0.203,0.564c0.025,0.396,0.356,0.706,0.753,0.706h35.266c0.397,0,0.728-0.31,0.753-0.706
					c0.013-0.211-0.059-0.411-0.203-0.564c-0.144-0.153-0.34-0.238-0.55-0.238H90.115z"/>
			</g>
		</g>
	</g>
	<g>
		<g>
			<polygon style="fill:#1075B2;" points="417.339,363.051 380.004,363.051 375.991,299.975 421.353,299.975 			"/>
			<path style="fill:#17CEC9;" d="M388.53,330.601c0,2.151,1.217,4.118,3.143,5.077l6.998,3.487v-24.709l-10.141,7.578V330.601z
				 M396.857,318.074v5.632l-2.999-3.39L396.857,318.074z M390.344,322.942l2.056-1.537l4.419,4.995l0.037-0.033v4.295l-6.513-4.799
				V322.942z M390.344,328.115l6.513,4.799v3.323l-3.37-1.679c-1.926-0.959-3.143-2.926-3.143-5.077V328.115z M399.48,314.456
				v24.709l6.361-3.444c1.831-0.991,2.972-2.906,2.972-4.988v-8.699L399.48,314.456z"/>
			<polygon style="fill:#4F454D;" points="418.196,279.796 379.147,279.796 375.327,290.064 422.016,290.064 			"/>
			<polygon style="fill:#6D6D6D;" points="382.897,281.796 418.94,281.796 418.196,279.796 379.147,279.796 375.327,290.064 
				379.821,290.064 			"/>
			<path style="fill:#126A96;" d="M376.8,301.1l0.295,4.629c3.12-1.026,6.523-1.597,10.09-1.597
				c14.988,0,27.138,9.971,27.138,22.271c0,0.899-0.072,1.783-0.198,2.654l-2.458,32.869h5.007l3.87-60.825H376.8z"/>
			<rect x="371.505" y="287.642" style="fill:#EDEBED;" width="54.333" height="11.333"/>
			<rect x="371.505" y="293.341" style="fill:#EDEBED;" width="54.333" height="5.635"/>
			<rect x="404.181" y="288.254" style="fill:#D6D6D6;" width="21.038" height="4.475"/>
			<rect x="404.181" y="293.921" style="fill:#D6D6D6;" width="21.038" height="4.475"/>
			<path style="fill:#4F454D;" d="M417.849,363.595h-38.353l-4.084-64.163h46.521L417.849,363.595z M380.515,362.507h36.314
				l3.944-61.987h-44.204L380.515,362.507z"/>
			<path style="fill:#4F454D;" d="M371.005,287.142v12.334h55.333v-12.334H371.005z M425.338,298.476h-53.333v-4.635h53.333V298.476
				z M372.005,292.841v-4.699h53.333v4.699H372.005z"/>
			<path style="fill:#D6D6D6;" d="M396.48,273.975c0,0,8.5-16.5-8-20.5c-16.5-4-16.5-24.5,3-29.5s30.5-18,15.5-22s-13.5,7.5-6.5,7.5
				c0,0,4,7.5-10.5,6.5s-14.5-13,9-19s21.5,26.5,5,39s-2.5,21.175-2.5,27.5C401.48,272.475,396.48,273.975,396.48,273.975z"/>
		</g>
	</g>
	<g>
		<g>
			<g>
				<rect x="213.279" y="356.555" style="fill:#EDEBED;" width="81.401" height="7.434"/>
				<path style="fill:#4F454D;" d="M295.181,364.489h-82.401v-8.435h82.401V364.489z M213.779,363.489h80.401v-6.435h-80.401
					V363.489z"/>
			</g>
			<g>
				<path style="fill:#EDEBED;" d="M286.143,344.587v-19.118h-64.327v19.118c0,3.718-5.768,9.488-8.537,11.968l0,0h81.401l0,0
					C291.911,354.075,286.143,348.305,286.143,344.587z"/>
				<path style="fill:#4F454D;" d="M295.988,357.055h-84.017l0.975-0.872c4.046-3.623,8.371-8.572,8.371-11.596v-19.618h65.327
					v19.618c0,3.023,4.324,7.973,8.371,11.596L295.988,357.055z M214.563,356.055h78.834c-2.641-2.482-7.754-7.77-7.754-11.468
					v-18.618h-63.327v18.618C222.316,348.284,217.203,353.572,214.563,356.055z"/>
			</g>
			<rect x="222.394" y="325.469" style="fill:#D6D6D6;" width="63.173" height="16.673"/>
		</g>
		<g>
			<path style="fill:#EDEBED;" d="M153.705,329.49c0,3.566,2.891,6.457,6.457,6.457h187.637c3.566,0,6.457-2.891,6.457-6.457
				v-22.181H153.705V329.49z"/>
			<path style="fill:#4F454D;" d="M258.338,319.012c0.271,1.094-0.009,2.297-0.864,3.152c-1.299,1.299-3.405,1.299-4.704,0
				c-1.299-1.299-1.299-3.405,0-4.704c0.855-0.855,2.058-1.136,3.152-0.864l0.879-0.879c-2.275-1.234-5.177-0.892-7.1,1.031
				c-2.343,2.343-2.343,6.142,0,8.485c2.343,2.343,6.142,2.343,8.485,0c1.923-1.923,2.265-4.826,1.031-7.1L258.338,319.012z"/>
			<path style="fill:#4F454D;" d="M347.799,336.446H160.161c-3.836,0-6.956-3.12-6.956-6.956v-22.682h201.551v22.682
				C354.756,333.326,351.635,336.446,347.799,336.446z M154.205,307.809v21.682c0,3.284,2.672,5.956,5.956,5.956h187.638
				c3.285,0,5.957-2.672,5.957-5.956v-21.682H154.205z"/>
		</g>
		<g>
			<path style="fill:#4B8BE8;" d="M347.799,206.004H160.161c-3.566,0-6.457,2.891-6.457,6.457v94.848h200.551v-94.848
				C354.255,208.895,351.365,206.004,347.799,206.004z"/>
			<path style="fill:#4F454D;" d="M354.756,307.809H153.205V212.46c0-3.836,3.121-6.956,6.956-6.956h187.638
				c3.836,0,6.957,3.121,6.957,6.956V307.809z M154.205,306.809h199.551V212.46c0-3.285-2.672-5.956-5.957-5.956H160.161
				c-3.285,0-5.956,2.672-5.956,5.956V306.809z"/>
		</g>
		<g>
			<g>
				<rect x="172.147" y="227.639" style="fill:#4F454D;" width="149.6" height="73.529"/>
				<rect x="172.147" y="211.975" style="fill:#4F454D;" width="149.6" height="14.244"/>
				<g>
					<path style="fill:#F99608;" d="M205.613,220.734l-0.576,2.075h-1.895l2.47-8.083h2.399l2.507,8.083h-1.967l-0.624-2.075
						H205.613z M207.664,219.367l-0.504-1.715c-0.144-0.48-0.288-1.08-0.408-1.559h-0.024c-0.12,0.479-0.24,1.091-0.372,1.559
						l-0.479,1.715H207.664z"/>
					<path style="fill:#F99608;" d="M213.353,215.313c0,0.504-0.384,0.912-0.984,0.912c-0.575,0-0.959-0.408-0.947-0.912
						c-0.012-0.527,0.372-0.923,0.96-0.923C212.969,214.39,213.341,214.786,213.353,215.313z M211.47,222.809v-5.865h1.823v5.865
						H211.47z"/>
				</g>
				<g>
					<path style="fill:#EDEBED;" d="M179.647,215.766c-1.565,0-2.833,1.269-2.833,2.833c0,1.565,1.269,2.833,2.833,2.833
						c1.565,0,2.833-1.268,2.833-2.833C182.48,217.035,181.212,215.766,179.647,215.766z M188.147,215.766
						c-1.565,0-2.833,1.269-2.833,2.833c0,1.565,1.269,2.833,2.833,2.833c1.565,0,2.833-1.268,2.833-2.833
						C190.98,217.035,189.712,215.766,188.147,215.766z M196.647,215.766c-1.565,0-2.833,1.269-2.833,2.833
						c0,1.565,1.269,2.833,2.833,2.833c1.565,0,2.833-1.268,2.833-2.833C199.48,217.035,198.212,215.766,196.647,215.766z"/>
					<path style="fill:#685E66;" d="M196.647,221.933c-1.838,0-3.334-1.495-3.334-3.333c0-1.838,1.496-3.333,3.334-3.333
						c1.838,0,3.333,1.496,3.333,3.333C199.98,220.438,198.485,221.933,196.647,221.933z M196.647,216.266
						c-1.287,0-2.334,1.047-2.334,2.333c0,1.287,1.047,2.333,2.334,2.333c1.287,0,2.333-1.046,2.333-2.333
						C198.98,217.313,197.934,216.266,196.647,216.266z M188.147,221.933c-1.838,0-3.334-1.495-3.334-3.333
						c0-1.838,1.496-3.333,3.334-3.333c1.838,0,3.333,1.496,3.333,3.333C191.48,220.438,189.985,221.933,188.147,221.933z
						 M188.147,216.266c-1.287,0-2.334,1.047-2.334,2.333c0,1.287,1.047,2.333,2.334,2.333c1.287,0,2.333-1.046,2.333-2.333
						C190.48,217.313,189.434,216.266,188.147,216.266z M179.647,221.933c-1.838,0-3.334-1.495-3.334-3.333
						c0-1.838,1.496-3.333,3.334-3.333c1.838,0,3.333,1.496,3.333,3.333C182.98,220.438,181.485,221.933,179.647,221.933z
						 M179.647,216.266c-1.287,0-2.334,1.047-2.334,2.333c0,1.287,1.047,2.333,2.334,2.333c1.287,0,2.333-1.046,2.333-2.333
						C181.98,217.313,180.934,216.266,179.647,216.266z"/>
				</g>
				<path style="fill:#685E66;" d="M179.647,217.766c-0.46,0-0.833,0.373-0.833,0.833c0,0.46,0.373,0.833,0.833,0.833
					c0.46,0,0.833-0.373,0.833-0.833C180.48,218.139,180.107,217.766,179.647,217.766z"/>
			</g>
			<g>
				<rect x="183.641" y="230.38" style="fill:#EDEBED;" width="124.958" height="67.955"/>
				<path style="fill:#4F454D;" d="M309.099,298.835H183.141v-68.956h125.958V298.835z M184.141,297.835h123.958v-66.956H184.141
					V297.835z"/>
			</g>
			<g>
				<rect x="183.641" y="230.38" style="fill:#DDD7DD;" width="124.958" height="3.247"/>
				<path style="fill:#4F454D;" d="M309.099,234.126H183.141v-4.247h125.958V234.126z M184.141,233.126h123.958v-2.247H184.141
					V233.126z"/>
			</g>
			<g>
				<g>
					<rect x="168.022" y="233.264" style="fill:#6B6B6B;" width="9.667" height="55.667"/>
					<path style="fill:#4F454D;" d="M178.188,289.431h-10.666v-56.666h10.666V289.431z M168.522,288.431h8.666v-54.666h-8.666
						V288.431z"/>
				</g>
				<g>
					<g>
						<rect x="168.105" y="242.652" style="fill:#4F454D;" width="9.667" height="1"/>
					</g>
					<g>
						<rect x="167.938" y="251.625" style="fill:#4F454D;" width="9.667" height="1"/>
					</g>
					<g>
						<rect x="168.105" y="260.598" style="fill:#4F454D;" width="9.667" height="1"/>
					</g>
					<g>
						<rect x="168.105" y="269.57" style="fill:#4F454D;" width="9.667" height="1"/>
					</g>
					<g>
						<rect x="168.105" y="278.542" style="fill:#4F454D;" width="9.667" height="1"/>
					</g>
				</g>
			</g>
			<g>
				<g>
					<rect x="301.173" y="232.642" style="fill:#6B6B6B;" width="30.667" height="70.649"/>
					<path style="fill:#4F454D;" d="M332.354,303.806h-31.696v-71.678h31.696V303.806z M301.688,302.776h29.638v-69.62h-29.638
						V302.776z"/>
				</g>
				<g>
					<rect x="307.646" y="242.809" style="fill:#4F454D;" width="20.5" height="1"/>
				</g>
				<g>
					<rect x="307.313" y="248.475" style="fill:#4F454D;" width="20.5" height="1"/>
				</g>
				<g>
					<rect x="307.313" y="254.142" style="fill:#4F454D;" width="20.5" height="1"/>
				</g>
				<g>
					<rect x="301.173" y="232.642" style="fill:#6B6B6B;" width="30.667" height="5.5"/>
					<path style="fill:#4F454D;" d="M332.34,238.642h-31.667v-6.5h31.667V238.642z M301.673,237.642h29.667v-4.5h-29.667V237.642z"
						/>
				</g>
				<g>
					<rect x="301.173" y="260.975" style="fill:#6B6B6B;" width="30.667" height="5.5"/>
					<path style="fill:#4F454D;" d="M332.34,266.976h-31.667v-6.5h31.667V266.976z M301.673,265.976h29.667v-4.5h-29.667V265.976z"
						/>
				</g>
				<g>
					<g>
						<rect x="306.902" y="271.225" style="fill:#6B6B6B;" width="5.167" height="5.167"/>
						<path style="fill:#4F454D;" d="M312.568,276.892h-6.166v-6.166h6.166V276.892z M307.402,275.892h4.166v-4.166h-4.166V275.892z
							"/>
					</g>
					<g>
						<g>
							<rect x="303.996" y="278.51" style="fill:#EAF467;" width="7.298" height="6.691"/>
							<path style="fill:#4F454D;" d="M311.838,285.744h-8.386v-7.778h8.386V285.744z M304.54,284.656h6.21v-5.603h-6.21V284.656z"
								/>
						</g>
						<g>
							<rect x="312.857" y="278.51" style="fill:#F2B11D;" width="7.298" height="6.691"/>
							<path style="fill:#4F454D;" d="M320.699,285.744h-8.386v-7.778h8.386V285.744z M313.401,284.656h6.21v-5.603h-6.21V284.656z"
								/>
						</g>
						<g>
							<rect x="321.719" y="278.51" style="fill:#EF7E20;" width="7.298" height="6.691"/>
							<path style="fill:#4F454D;" d="M329.56,285.744h-8.386v-7.778h8.386V285.744z M322.263,284.656h6.21v-5.603h-6.21V284.656z"
								/>
						</g>
						<g>
							<rect x="303.996" y="286.315" style="fill:#B72F15;" width="7.298" height="6.691"/>
							<path style="fill:#4F454D;" d="M311.838,293.55h-8.386v-7.778h8.386V293.55z M304.54,292.462h6.21v-5.603h-6.21V292.462z"/>
						</g>
						<g>
							<rect x="312.857" y="286.315" style="fill:#F70000;" width="7.298" height="6.691"/>
							<path style="fill:#4F454D;" d="M320.699,293.55h-8.386v-7.778h8.386V293.55z M313.401,292.462h6.21v-5.603h-6.21V292.462z"/>
						</g>
						<g>
							<rect x="321.719" y="286.315" style="fill:#C4068E;" width="7.298" height="6.691"/>
							<path style="fill:#4F454D;" d="M329.56,293.55h-8.386v-7.778h8.386V293.55z M322.263,292.462h6.21v-5.603h-6.21V292.462z"/>
						</g>
						<g>
							<rect x="303.996" y="294.121" style="fill:#551DBF;" width="7.298" height="6.691"/>
							<path style="fill:#4F454D;" d="M311.838,301.355h-8.386v-7.778h8.386V301.355z M304.54,300.268h6.21v-5.603h-6.21V300.268z"
								/>
						</g>
						<g>
							<rect x="312.857" y="294.121" style="fill:#1075B2;" width="7.298" height="6.691"/>
							<path style="fill:#4F454D;" d="M320.699,301.355h-8.386v-7.778h8.386V301.355z M313.401,300.268h6.21v-5.603h-6.21V300.268z"
								/>
						</g>
						<g>
							<rect x="321.719" y="294.121" style="fill:#17CEC9;" width="7.298" height="6.691"/>
							<path style="fill:#4F454D;" d="M329.56,301.355h-8.386v-7.778h8.386V301.355z M322.263,300.268h6.21v-5.603h-6.21V300.268z"
								/>
						</g>
					</g>
					<g>
						<rect x="304.569" y="268.892" style="fill:#D19CD3;" width="5.167" height="5.167"/>
						<path style="fill:#4F454D;" d="M310.235,274.559h-6.167v-6.167h6.167V274.559z M305.068,273.559h4.167v-4.167h-4.167V273.559z
							"/>
					</g>
				</g>
			</g>
			<g>
				<g>
					<path style="fill:#F99608;" d="M216.785,244.696c-10.422,2.616-18.138,12.046-18.138,23.279c0,13.255,10.745,24,24,24
						c13.255,0,24-10.745,24-24"/>
					<path style="fill:#4F454D;" d="M222.647,292.476c-13.509,0-24.5-10.99-24.5-24.5c0-11.256,7.614-21.028,18.517-23.764
						l0.243,0.97c-10.456,2.624-17.76,11.998-17.76,22.794c0,12.958,10.542,23.5,23.5,23.5c12.958,0,23.5-10.542,23.5-23.5h1
						C247.147,281.485,236.156,292.476,222.647,292.476z"/>
				</g>
				<g>
					<g>
						<path style="fill:#D3B697;" d="M219.473,249.41c1.036,2.919,3.793,11.057,4.299,16.315l6,2.5l6.5-4.375l-0.875-6.375
							c0,0-7.364-4.258-13.349-9.743c-0.567-0.519-1.417-0.574-2.031-0.113l0,0C219.463,248.035,219.242,248.759,219.473,249.41z"/>
						<path style="fill:#4F454D;" d="M229.772,268.726c-0.065,0-0.13-0.013-0.192-0.038l-6-2.5c-0.17-0.071-0.288-0.23-0.305-0.414
							c-0.495-5.145-3.153-13.04-4.272-16.196c-0.306-0.86-0.019-1.808,0.714-2.357c0.801-0.601,1.923-0.539,2.669,0.144
							c5.876,5.385,13.188,9.636,13.262,9.679c0.133,0.077,0.224,0.212,0.245,0.364l0.875,6.375c0.026,0.19-0.058,0.377-0.216,0.483
							l-6.5,4.375C229.967,268.696,229.87,268.726,229.772,268.726z M224.239,265.379l5.477,2.281l6.019-4.051l-0.8-5.826
							c-1.256-0.746-7.835-4.743-13.225-9.682c-0.392-0.359-0.979-0.393-1.394-0.082c-0.381,0.286-0.53,0.777-0.372,1.223
							c0,0,0,0,0,0C221.055,252.374,223.664,260.123,224.239,265.379z"/>
					</g>
					<g>
						<polygon style="fill:#D3B697;" points="237.084,265.1 230.647,269.413 232.584,273.475 240.397,268.225 						"/>
						<path style="fill:#4F454D;" d="M232.584,273.976c-0.044,0-0.088-0.006-0.132-0.018c-0.14-0.038-0.257-0.136-0.319-0.268
							l-1.938-4.063c-0.107-0.224-0.033-0.492,0.173-0.63l6.438-4.313c0.194-0.129,0.451-0.109,0.622,0.052l3.313,3.125
							c0.11,0.103,0.167,0.253,0.155,0.404c-0.013,0.151-0.093,0.289-0.22,0.374l-7.813,5.25
							C232.78,273.946,232.683,273.976,232.584,273.976z M231.284,269.588l1.502,3.149l6.812-4.577l-2.567-2.422L231.284,269.588z"
							/>
					</g>
					<g>
						<path style="fill:#4F454D;" d="M229.148,261.851c-0.317,0-0.629-0.15-0.823-0.431l-8.917-12.875
							c-0.314-0.454-0.201-1.077,0.253-1.392c0.453-0.315,1.077-0.201,1.392,0.253l8.917,12.876
							c0.314,0.454,0.201,1.077-0.253,1.392C229.542,261.793,229.344,261.851,229.148,261.851z"/>
					</g>
				</g>
				<g>
					<g>
						<path style="fill:#67BBCE;" d="M219.447,247.142c-1.93,0-3.5-1.57-3.5-3.5c0-1.93,1.57-3.5,3.5-3.5s3.5,1.57,3.5,3.5
							C222.947,245.572,221.377,247.142,219.447,247.142z M219.447,241.142c-1.379,0-2.5,1.122-2.5,2.5c0,1.378,1.121,2.5,2.5,2.5
							c1.378,0,2.5-1.122,2.5-2.5C221.947,242.264,220.826,241.142,219.447,241.142z"/>
					</g>
					<g>
						<path style="fill:#67BBCE;" d="M222.66,243.556l-0.157-0.987c2.94-0.468,5.664-1.61,7.876-3.303l0.607,0.794
							C228.642,241.854,225.763,243.063,222.66,243.556z"/>
					</g>
					<g>
						<path style="fill:#67BBCE;" d="M216.627,243.615c-2.944-0.409-5.725-1.467-8.04-3.061l-0.376-0.24l0.538-0.843l0.391,0.249
							c2.202,1.516,4.834,2.517,7.625,2.904L216.627,243.615z"/>
					</g>
					<g>
						<g>
							<path style="fill:#67BBCE;" d="M208.98,240.392h-4.833v-4.834h4.833V240.392z M205.147,239.392h2.833v-2.834h-2.833V239.392z
								"/>
						</g>
						<g>
							<path style="fill:#67BBCE;" d="M234.813,240.392h-4.833v-4.834h4.833V240.392z M230.98,239.392h2.833v-2.834h-2.833V239.392z
								"/>
						</g>
					</g>
				</g>
			</g>
			<g>
				<g>
					<path style="fill:#EDEBED;" d="M266.73,250.809c0,0,16-5.5,17.75-5s7.5,1.25,7.25,4.5s-16.5,11.75-16.5,11.75l-2.25,8.75
						c0,0-8.75,5.25-9.5,4.25s-1.708-8.208-1.708-8.208s-4.059,0.952-5.292,0.458c-1.483-0.594-3.451-3.916-3.25-5.5
						c0.144-1.14,3.25-3.25,3.25-3.25l-2.833-4.396l-2.917,0.896l-1.521-2.708l2.688-1.188l-2.167-3.604c0,0,4.5-2.25,5.25-2.25
						S266.73,250.809,266.73,250.809z"/>
					<path style="fill:#4F454D;" d="M263.79,275.658c-0.485,0-0.626-0.188-0.71-0.3c-0.705-0.94-1.462-5.976-1.73-7.902
						c-1.203,0.253-3.954,0.757-5.056,0.316c-1.692-0.677-3.788-4.226-3.559-6.027c0.138-1.093,2.05-2.595,3.064-3.32l-2.367-3.673
						l-2.94,0.903l-1.987-3.54l2.672-1.18l-2.153-3.582l0.483-0.242c1.081-0.54,4.669-2.303,5.474-2.303
						c0.744,0,7.616,3.376,11.786,5.459c3.102-1.063,16.065-5.447,17.852-4.94c0.25,0.072,0.585,0.148,0.974,0.237
						c2.405,0.552,6.884,1.581,6.637,4.782c-0.252,3.283-13.414,10.392-16.569,12.051l-2.245,8.733l-0.177,0.105
						C267.136,274.898,264.766,275.658,263.79,275.658z M263.836,274.69c0.921,0.053,5.121-2.063,8.712-4.205l2.254-8.767
						l0.197-0.104c6.188-3.236,16.066-9.179,16.233-11.345c0.18-2.343-3.752-3.245-5.864-3.73c-0.409-0.094-0.761-0.175-1.025-0.25
						c-1.005-0.289-9.659,2.314-17.45,4.992l-0.198,0.068l-0.188-0.094c-4.087-2.044-10.84-5.33-11.562-5.45
						c-0.367,0.022-2.539,0.993-4.506,1.959l2.179,3.626l-2.702,1.194l1.054,1.876l2.892-0.888l3.304,5.124l-0.403,0.273
						c-1.404,0.955-2.964,2.335-3.035,2.899c-0.172,1.351,1.669,4.465,2.939,4.974c0.792,0.315,3.482-0.127,4.991-0.48l0.537-0.126
						l0.073,0.546C262.646,269.633,263.37,273.867,263.836,274.69z"/>
				</g>
				<circle style="fill:#1075B2;" cx="257.397" cy="250.975" r="2"/>
				<path style="fill:#1075B2;" d="M290.688,249.6c-0.664-1.419-2.038-0.245-3.042,0.958c-0.836,1.002-7.833,7.208-12,2.417
					c-0.232-0.267-17.75,8.667-17.75,8.667s1.875,4.021,3.438,3.708c0.258-0.052,0.193-1.006,4.375-3.188
					c1.399-0.73,6.819-3.313,8-3.5l0.938,1.896c0,0,10.877-5.388,14.208-8.375C290.063,251.1,290.712,249.65,290.688,249.6z"/>
				<path style="fill:#CAC7D3;" d="M256.73,259.309c0,0,0.417,5.5,4.667,7.083c0,0-4.063,0.625-4.729,0.292
					c-0.667-0.333-2.875-3.146-2.75-4.542C254.008,261.132,256.73,259.309,256.73,259.309z"/>
				<g>
					<path style="fill:#C5E8EA;" d="M277.397,249.85c0,0,0.712,2.029,2.778,2.029c1.734,0,5.751-2.628,7.426-5.071
						c-1.064-0.458-2.34-0.671-2.922-0.837C284.679,245.971,282.324,247.625,277.397,249.85z"/>
					<path style="fill:#4F454D;" d="M280.175,252.379c-2.393,0-3.216-2.267-3.25-2.363l-0.152-0.433l0.418-0.188
						c4.816-2.175,7.178-3.817,7.201-3.833l0.195-0.137l0.229,0.065c0.156,0.045,0.365,0.093,0.607,0.149
						c0.662,0.153,1.568,0.362,2.376,0.709l0.559,0.241l-0.344,0.501C286.319,249.561,282.144,252.379,280.175,252.379z
						 M278.068,250.094c0.296,0.502,0.943,1.285,2.106,1.285c1.411,0,4.853-2.157,6.627-4.338c-0.564-0.188-1.146-0.322-1.604-0.428
						c-0.157-0.036-0.301-0.069-0.427-0.101C284.135,246.934,281.957,248.308,278.068,250.094z"/>
				</g>
				<g>
					<path style="fill:#4F454D;" d="M261.273,266.899c-0.165-1.68-0.012-2.662,0.483-3.09c0.149-0.13,0.313-0.19,0.457-0.207
						l9.211-4.571c0.873-0.433,1.714-0.803,2.424-0.535c0.24,0.09,0.568,0.298,0.768,0.78l1.076,2.591l-0.924,0.383l-1.076-2.591
						c-0.066-0.161-0.14-0.206-0.195-0.227c-0.355-0.135-1.185,0.274-1.628,0.495l-9.477,4.702l-0.02-0.005
						c-0.081,0.158-0.25,0.684-0.103,2.177L261.273,266.899z"/>
				</g>
				<g>
					<polygon style="fill:#4F454D;" points="263.548,274.333 263.079,273.45 270.862,269.315 272.653,258.953 273.64,259.123 
						271.765,269.968 					"/>
				</g>
			</g>
		</g>
		<g style="opacity:0.5;">
			<path style="fill:#FFFFFF;" d="M353.827,213.326v-0.236c0-3.515-2.85-6.365-6.365-6.365h-16.607l-99.862,99.862h29.573
				L353.827,213.326z"/>
			<polygon style="fill:#FFFFFF;" points="319.026,206.725 250.68,206.725 154.268,303.138 154.268,306.587 219.164,306.587 			"/>
		</g>
		<g>
			<path style="fill:#F7F7F5;" d="M154.977,305.971c-0.273,0-0.495-0.222-0.495-0.495V213c0-3.93,2.203-6.276,5.894-6.276H333.5
				c0.273,0,0.495,0.222,0.495,0.496c0,0.274-0.222,0.496-0.495,0.496H160.375c-3.162,0-4.903,1.877-4.903,5.285v92.476
				C155.472,305.749,155.25,305.971,154.977,305.971z"/>
		</g>
		<g>
			<path style="fill:#F7F7F5;" d="M347.833,207.714h-6.166c-0.273,0-0.495-0.222-0.495-0.495c0-0.273,0.222-0.495,0.495-0.495h6.166
				c0.273,0,0.495,0.222,0.495,0.495C348.328,207.493,348.106,207.714,347.833,207.714z"/>
		</g>
	</g>
	<g>
		
			<linearGradient id="SVGID_00000059298644140207453660000001263462994160258237_" gradientUnits="userSpaceOnUse" x1="244.3915" y1="276.1973" x2="276.3913" y2="446.1969">
			<stop  offset="0" style="stop-color:#000000;stop-opacity:0.9535"/>
			<stop  offset="1" style="stop-color:#000000;stop-opacity:0"/>
		</linearGradient>
		<polygon style="opacity:0.4;fill:url(#SVGID_00000059298644140207453660000001263462994160258237_);" points="33.637,368.51 
			32.38,369.767 130.973,468.36 495.527,467.973 495.527,390.473 472.585,368.51 		"/>
		<rect x="54.98" y="363.309" style="fill:#4F454D;" width="417" height="5.333"/>
	</g>
	<g>
		<g>
			<rect x="130.98" y="355.059" style="fill:#EDEBED;" width="120" height="8"/>
			<path style="fill:#4F454D;" d="M251.48,363.559h-121v-9h121V363.559z M131.48,362.559h119v-7h-119V362.559z"/>
		</g>
		<g>
			<rect x="130.98" y="358.487" style="fill:#EDEBED;" width="120" height="4.572"/>
			<path style="fill:#4F454D;" d="M251.48,363.559h-121v-5.571h121V363.559z M131.48,362.559h119v-3.571h-119V362.559z"/>
		</g>
	</g>
	<g>
		<g>
			<rect x="304.98" y="357.374" style="fill:#EDEBED;" width="98.667" height="5.685"/>
			<path style="fill:#4F454D;" d="M404.146,363.559H304.48v-6.685h99.666V363.559z M305.48,362.559h97.666v-4.685H305.48V362.559z"
				/>
		</g>
		<g>
			<g>
				<rect x="304.98" y="357.374" style="fill:#6D6D6D;" width="11.353" height="5.685"/>
				<path style="fill:#4F454D;" d="M316.833,363.559H304.48v-6.685h12.353V363.559z M305.48,362.559h10.353v-4.685H305.48V362.559z"
					/>
			</g>
			<g>
				<rect x="341" y="357.374" style="fill:#6D6D6D;" width="30.333" height="5.685"/>
				<path style="fill:#4F454D;" d="M371.833,363.559H340.5v-6.685h31.333V363.559z M341.5,362.559h29.333v-4.685H341.5V362.559z"/>
			</g>
			<g>
				<rect x="396" y="357.374" style="fill:#6D6D6D;" width="7.647" height="5.685"/>
				<path style="fill:#4F454D;" d="M404.146,363.559H395.5v-6.685h8.646V363.559z M396.5,362.559h6.646v-4.685H396.5V362.559z"/>
			</g>
		</g>
		<g>
			<g>
				<rect x="330.73" y="344.309" style="fill:#6D6D6D;" width="24.667" height="12"/>
				<path style="fill:#4F454D;" d="M355.396,356.809H330.73c-0.276,0-0.5-0.224-0.5-0.5v-12c0-0.276,0.224-0.5,0.5-0.5h24.666
					c0.276,0,0.5,0.224,0.5,0.5v12C355.896,356.585,355.673,356.809,355.396,356.809z M331.23,355.809h23.666v-11H331.23V355.809z"
					/>
			</g>
			<polygon style="fill:#8C8C8C;" points="331.227,344.85 331.227,347.85 354.654,347.85 354.813,347.85 354.813,344.85 			"/>
			<g>
				<rect x="335.945" y="347.808" style="fill:#6D6D6D;" width="14.236" height="5.002"/>
				<path style="fill:#4F454D;" d="M350.682,353.31h-15.236v-6.002h15.236V353.31z M336.445,352.31h13.236v-4.002h-13.236V352.31z"
					/>
			</g>
			<g>
				<path style="fill:#6D6D6D;" d="M325.194,347.808h-3.748c-1.381,0-2.501,1.12-2.501,2.501c0,1.381,1.12,2.501,2.501,2.501h3.748
					V347.808z"/>
				<path style="fill:#4F454D;" d="M325.194,353.31h-3.748c-1.654,0-3.001-1.347-3.001-3.001s1.347-3.001,3.001-3.001h3.748
					c0.276,0,0.5,0.224,0.5,0.5v5.002C325.694,353.086,325.471,353.31,325.194,353.31z M321.446,348.308
					c-1.104,0-2.001,0.898-2.001,2.001c0,1.104,0.897,2.001,2.001,2.001h3.248v-4.002H321.446z"/>
			</g>
			<g>
				<polygon style="fill:#6D6D6D;" points="325.563,352.875 330.73,356.309 330.73,344.309 325.563,347.742 				"/>
				<g>
					<path style="fill:#8C8C8C;" d="M321.405,348.35c-0.011,0-0.022,0-0.033,0c-1.294,0.021-1.212,2.021,0.082,2.021h3.194v-2.021
						H321.405z"/>
					<polygon style="fill:#8C8C8C;" points="330.218,348.125 330.218,345.293 326.086,348.039 326.086,350.011 330.018,348.125 
											"/>
				</g>
				<path style="fill:#4F454D;" d="M330.73,356.809c-0.097,0-0.193-0.028-0.276-0.084l-5.167-3.434
					c-0.14-0.092-0.224-0.249-0.224-0.416v-5.133c0-0.167,0.084-0.324,0.224-0.416l5.167-3.434c0.153-0.103,0.35-0.112,0.513-0.024
					c0.162,0.087,0.264,0.256,0.264,0.44v12c0,0.185-0.102,0.354-0.264,0.44C330.893,356.789,330.811,356.809,330.73,356.809z
					 M326.063,352.606l4.167,2.77v-10.135l-4.167,2.77V352.606z"/>
			</g>
			<g>
				<rect x="355.397" y="344.309" style="fill:#EDEBED;" width="22.021" height="12"/>
				<path style="fill:#4F454D;" d="M377.918,356.809h-23.022v-13h23.022V356.809z M355.896,355.809h21.022v-11h-21.022V355.809z"/>
			</g>
			<rect x="355.926" y="344.85" style="fill:#FFFFFF;" width="20.953" height="3"/>
			<g>
				<path style="fill:#6D6D6D;" d="M381.886,354.167h-1.567v-7.716h1.567c2.131,0,3.858,1.727,3.858,3.858v0
					C385.744,352.439,384.017,354.167,381.886,354.167z"/>
				<path style="fill:#4F454D;" d="M381.886,354.667h-2.066v-8.717h2.066c2.403,0,4.358,1.955,4.358,4.358
					C386.244,352.712,384.289,354.667,381.886,354.667z M380.819,353.667h1.066c1.852,0,3.358-1.507,3.358-3.358
					s-1.507-3.358-3.358-3.358h-1.066V353.667z"/>
			</g>
			<path style="fill:#8C8C8C;" d="M381.746,346.825h-1.364v1.524h0.348c1.855,0,3.359,1.504,3.359,3.359
				c0,0.359-0.071,0.698-0.176,1.023c0.723-0.616,1.191-1.522,1.191-2.547C385.105,348.329,383.601,346.825,381.746,346.825z"/>
			<g>
				<g>
					<rect x="370.468" y="343.384" style="fill:#EDEBED;" width="3.897" height="13.848"/>
					<path style="fill:#4F454D;" d="M374.865,357.732h-4.897v-14.848h4.897V357.732z M370.968,356.732h2.897v-12.848h-2.897V356.732
						z"/>
				</g>
				<g>
					<path style="fill:#EDEBED;" d="M377.44,343.384v13.848h0.072c2.113,0,3.826-1.713,3.826-3.826v-6.197
						c0-2.113-1.713-3.826-3.826-3.826H377.44z"/>
					<g>
						<path style="fill:#FFFFFF;" d="M378.062,344.194h-0.051v2.594h0.073c0,0,1.723,0.159,2.694,2.245v-1.562
							C380.778,345.661,379.562,344.194,378.062,344.194z"/>
						<rect x="371.043" y="343.944" style="fill:#FFFFFF;" width="2.75" height="2.469"/>
					</g>
					<path style="fill:#4F454D;" d="M377.512,357.732h-0.5l-0.072-0.5v-14.348h0.572c2.385,0,4.325,1.94,4.325,4.325v6.197
						C381.837,355.792,379.896,357.732,377.512,357.732z M377.939,343.912v12.785c1.66-0.234,2.897-1.62,2.897-3.29v-6.197
						C380.837,345.522,379.571,344.123,377.939,343.912z"/>
				</g>
			</g>
		</g>
	</g>
	<g>
		<g>
			<g>
				<path style="fill:#EDEBED;" d="M430.98,339.309c-12.518,0-22.667,4.648-22.667,17.167h45.333
					C453.647,343.957,443.498,339.309,430.98,339.309z"/>
				<path style="fill:#4F454D;" d="M454.146,356.976h-46.333v-0.5c0-11.393,8.228-17.667,23.167-17.667
					c14.938,0,23.166,6.274,23.166,17.667V356.976z M408.819,355.976h44.321c-0.315-14.052-13.978-16.167-22.16-16.167
					C422.798,339.809,409.135,341.924,408.819,355.976z"/>
			</g>
			<g>
				<path style="fill:#EDEBED;" d="M449.203,362.975h-36.447c-2.454,0-4.443-1.989-4.443-4.443v-2.057h45.333v2.057
					C453.647,360.986,451.657,362.975,449.203,362.975z"/>
				<path style="fill:#4F454D;" d="M449.203,363.476h-36.446c-2.725,0-4.943-2.218-4.943-4.943v-2.557h46.333v2.557
					C454.146,361.258,451.929,363.476,449.203,363.476z M408.813,356.976v1.557c0,2.175,1.769,3.943,3.943,3.943h36.446
					c2.175,0,3.943-1.769,3.943-3.943v-1.557H408.813z"/>
			</g>
		</g>
		<g>
			<path style="fill:#D6D6D6;" d="M447.014,343.814c-1.194,4.743-4.711,9.075-9.841,12.161h15.968
				C453.021,350.649,450.961,346.563,447.014,343.814z"/>
			<path style="fill:#4F454D;" d="M454.122,355.975c0.004,0.17,0.025,0.328,0.025,0.5v-0.5H454.122z"/>
			<path style="fill:#4F454D;" d="M434.193,356.975c0.353-0.165,0.712-0.324,1.054-0.5c0.314-0.161,0.619-0.33,0.923-0.5h-1.044
				l-0.108,0.056l-1.838,0.944H434.193z"/>
			<path style="fill:#4F454D;" d="M453.634,355.975c0.004,0.167,0.013,0.33,0.013,0.5v0.5h0.5v-0.5c0-0.172-0.022-0.33-0.025-0.5
				H453.634z"/>
			<path style="fill:#4F454D;" d="M437.173,355.975h-1.003c-0.304,0.17-0.609,0.339-0.923,0.5h18.399c0-0.17-0.009-0.333-0.013-0.5
				h-0.492H437.173z"/>
			<path style="fill:#D6D6D6;" d="M408.924,359.403c0.396,1.77,1.962,3.072,3.832,3.072h36.447c2.175,0,3.943-1.768,3.943-3.943
				v-1.557h-17.779c-4.819,2.453-10.483,3.75-16.388,3.75C415.518,360.725,412.139,360.281,408.924,359.403z"/>
			<path style="fill:#4F454D;" d="M434.193,356.975h1.174h17.779h0.5v-0.5h-18.399C434.905,356.651,434.547,356.81,434.193,356.975z
				"/>
		</g>
	</g>
	<g>
		<g>
			<circle style="fill:#4F454D;" cx="91.563" cy="218.454" r="12"/>
			
				<ellipse transform="matrix(0.9249 -0.3803 0.3803 0.9249 -76.1998 51.2369)" style="fill:#4F454D;" cx="91.563" cy="218.454" rx="10.229" ry="10.229"/>
		</g>
		<g>
			<g>
				<circle style="fill:#4F454D;" cx="57.5" cy="284.621" r="11.461"/>
				<circle style="fill:#4F454D;" cx="57.5" cy="284.621" r="9.769"/>
				<path style="fill:#4F454D;" d="M65.474,280.395c-1.516-2.855-4.516-4.801-7.974-4.801c-4.985,0-9.026,4.041-9.026,9.026
					c0,2.356,0.91,4.494,2.389,6.102C54.778,286.401,59.763,282.855,65.474,280.395z"/>
				<path style="fill:#4F454D;" d="M61.732,284.621c0,2.337-1.895,4.232-4.232,4.232c-2.337,0-4.232-1.895-4.232-4.232
					c0-2.337,1.895-4.232,4.232-4.232C59.837,280.389,61.732,282.284,61.732,284.621z"/>
			</g>
			<g>
				<polygon style="fill:#4F454D;" points="51.013,357.251 39.506,280.089 83.502,215.618 88.458,218.999 45.788,281.528 
					56.947,356.366 				"/>
			</g>
			<g>
				<polygon style="fill:#4F454D;" points="67.702,364.045 52.154,283.603 91.39,216.461 96.57,219.489 58.473,284.681 
					73.592,362.906 				"/>
			</g>
			<g>
				<g>
					<circle style="fill:#F2B11D;" cx="43.063" cy="281.621" r="12"/>
					<path style="fill:#4F454D;" d="M43.063,294.165c-6.916,0-12.543-5.628-12.543-12.544c0-6.916,5.627-12.544,12.543-12.544
						c6.917,0,12.543,5.628,12.543,12.544C55.607,288.537,49.98,294.165,43.063,294.165z M43.063,270.165
						c-6.317,0-11.457,5.139-11.457,11.456c0,6.317,5.139,11.456,11.457,11.456s11.457-5.139,11.457-11.456
						C54.52,275.304,49.381,270.165,43.063,270.165z"/>
				</g>
				<g>
					
						<ellipse transform="matrix(0.1597 -0.9872 0.9872 0.1597 -241.8205 279.1646)" style="fill:#F2B11D;" cx="43.063" cy="281.621" rx="10.229" ry="10.229"/>
					<path style="fill:#4F454D;" d="M43.063,292.313c-5.895,0-10.692-4.796-10.692-10.691s4.797-10.691,10.692-10.691
						c5.896,0,10.692,4.796,10.692,10.691S48.959,292.313,43.063,292.313z M43.063,271.855c-5.385,0-9.766,4.381-9.766,9.766
						s4.381,9.766,9.766,9.766c5.385,0,9.765-4.381,9.765-9.766S48.448,271.855,43.063,271.855z"/>
				</g>
				<path style="fill:#FFCA5F;" d="M51.412,277.197c-1.587-2.989-4.729-5.026-8.349-5.026c-5.22,0-9.451,4.231-9.451,9.451
					c0,2.467,0.953,4.706,2.501,6.389C40.214,283.484,45.432,279.772,51.412,277.197z"/>
				<path style="fill:#4F454D;" d="M47.494,281.621c0,2.447-1.984,4.431-4.431,4.431c-2.447,0-4.431-1.984-4.431-4.431
					c0-2.447,1.984-4.431,4.431-4.431C45.511,277.19,47.494,279.174,47.494,281.621z"/>
			</g>
		</g>
		<g>
			<path style="fill:#F2B11D;" d="M49.23,351.663h-2.417c-6.029,0-10.917,4.888-10.917,10.917h66.667v-2.83L49.23,351.663z
				 M35.897,369.663c0,6.029,4.888,10.917,10.917,10.917h2.417l53.333-8.086v-2.83L35.897,369.663L35.897,369.663z"/>
			<path style="fill:#4F454D;" d="M46.813,381.123c-6.319,0-11.46-5.142-11.46-11.46v-0.544h67.754v3.842l-0.462,0.069
				l-53.333,8.086L46.813,381.123z M36.454,370.207c0.284,5.468,4.822,9.828,10.359,9.828h2.417l52.79-8.009v-1.819H36.454z
				 M103.107,363.123H35.353v-0.544c0-6.318,5.141-11.46,11.46-11.46l2.498,0.007l53.795,8.155V363.123z M36.454,362.035h65.566
				v-1.818l-52.831-8.01h-2.376C41.276,352.207,36.738,356.567,36.454,362.035z"/>
		</g>
		<g>
			<g>
				<circle style="fill:#F2B11D;" cx="40.563" cy="366.121" r="12"/>
				<path style="fill:#4F454D;" d="M40.563,378.665c-6.916,0-12.543-5.628-12.543-12.544c0-6.916,5.627-12.544,12.543-12.544
					c6.917,0,12.543,5.628,12.543,12.544C53.107,373.037,47.48,378.665,40.563,378.665z M40.563,354.665
					c-6.317,0-11.457,5.139-11.457,11.456c0,6.317,5.139,11.456,11.457,11.456s11.457-5.139,11.457-11.456
					C52.02,359.804,46.881,354.665,40.563,354.665z"/>
			</g>
			<g>
				
					<ellipse transform="matrix(0.1597 -0.9872 0.9872 0.1597 -327.3372 347.7042)" style="fill:#F2B11D;" cx="40.563" cy="366.121" rx="10.229" ry="10.229"/>
				<path style="fill:#4F454D;" d="M40.563,376.813c-5.895,0-10.692-4.796-10.692-10.691s4.797-10.691,10.692-10.691
					c5.896,0,10.692,4.796,10.692,10.691S46.459,376.813,40.563,376.813z M40.563,356.355c-5.385,0-9.766,4.381-9.766,9.766
					s4.381,9.766,9.766,9.766c5.385,0,9.765-4.381,9.765-9.766S45.948,356.355,40.563,356.355z"/>
			</g>
			<path style="fill:#FFCA5F;" d="M48.912,361.697c-1.587-2.989-4.729-5.026-8.349-5.026c-5.22,0-9.451,4.231-9.451,9.451
				c0,2.467,0.953,4.706,2.501,6.389C37.714,367.984,42.932,364.272,48.912,361.697z"/>
			<path style="fill:#4F454D;" d="M44.994,366.121c0,2.447-1.984,4.431-4.431,4.431c-2.447,0-4.431-1.984-4.431-4.431
				c0-2.447,1.984-4.431,4.431-4.431C43.011,361.69,44.994,363.674,44.994,366.121z"/>
		</g>
		<g>
			<g>
				<circle style="fill:#F2B11D;" cx="87.897" cy="216.121" r="12"/>
				<path style="fill:#4F454D;" d="M87.897,228.665c-6.917,0-12.544-5.627-12.544-12.544c0-6.916,5.627-12.543,12.544-12.543
					c6.916,0,12.543,5.627,12.543,12.543C100.44,223.038,94.813,228.665,87.897,228.665z M87.897,204.665
					c-6.317,0-11.457,5.139-11.457,11.456c0,6.317,5.139,11.457,11.457,11.457c6.317,0,11.456-5.139,11.456-11.457
					C99.353,209.804,94.214,204.665,87.897,204.665z"/>
			</g>
			<g>
				
					<ellipse transform="matrix(0.2288 -0.9735 0.9735 0.2288 -142.6003 252.2495)" style="fill:#F2B11D;" cx="87.897" cy="216.121" rx="10.229" ry="10.229"/>
				<path style="fill:#4F454D;" d="M87.897,226.814c-5.896,0-10.692-4.797-10.692-10.692c0-5.895,4.797-10.692,10.692-10.692
					c5.895,0,10.692,4.797,10.692,10.692C98.589,222.017,93.792,226.814,87.897,226.814z M87.897,206.355
					c-5.385,0-9.766,4.381-9.766,9.766c0,5.385,4.381,9.766,9.766,9.766c5.385,0,9.765-4.381,9.765-9.766
					C97.662,210.736,93.282,206.355,87.897,206.355z"/>
			</g>
		</g>
		<g>
			<g>
				<path style="fill:#F2B11D;" d="M96.463,177.038c-2.439-1.919-7.449,0.379-11.19,5.132c-3.741,4.754-4.797,10.164-2.359,12.083
					l11.871,16.462l9.859-11.409l10.179-14.051L96.463,177.038z"/>
				<path style="fill:#4F454D;" d="M94.743,211.672l-12.264-17.007c-2.653-2.194-1.644-7.816,2.327-12.862
					c3.976-5.051,9.211-7.352,11.963-5.278l18.963,8.486l-10.608,14.643L94.743,211.672z M94.32,176.952
					c-2.416,0-5.881,2.156-8.58,5.585c-3.473,4.413-4.599,9.564-2.459,11.249l0.114,0.12l11.431,15.852l9.368-10.84l9.719-13.419
					l-17.817-7.994C95.619,177.129,95.013,176.952,94.32,176.952z"/>
			</g>
			<g>
				<path style="fill:#F2B11D;" d="M108.65,178.304c-3.992-3.142-12.194,0.62-18.319,8.402c-6.125,7.782-7.854,16.638-3.861,19.78
					L104.5,232l17.542-17.242L137.417,191L108.65,178.304z"/>
				<path style="fill:#4F454D;" d="M104.418,232.913l-18.385-26.016c-2.062-1.677-2.775-4.753-2.01-8.675
					c0.747-3.827,2.821-8.047,5.841-11.884c3.02-3.837,6.634-6.845,10.178-8.471c3.636-1.668,6.798-1.696,8.913-0.078l29.338,12.948
					l-15.835,24.444L104.418,232.913z M105.137,177.783c-1.351,0-2.908,0.389-4.599,1.165c-3.376,1.548-6.835,4.434-9.74,8.125
					c-2.905,3.691-4.897,7.732-5.609,11.377c-0.685,3.506-0.099,6.194,1.648,7.569l0.118,0.124l17.627,24.943l16.998-16.706
					l14.96-23.119l-28.257-12.492C107.445,178.112,106.378,177.783,105.137,177.783z"/>
			</g>
			<path style="fill:#FFCA5F;" d="M90.147,189.809c5.9-7.496,12.655-12.36,16.5-9.333l29.201,13.87l1.608-2.22l-28.951-12.956
				c-3.845-3.026-11.745,0.597-17.645,8.093c-5.237,6.654-7.127,14.115-4.798,17.825C84.98,200.975,86.204,194.818,90.147,189.809z"
				/>
			<g>
				<path style="fill:#FFCA5F;" d="M113.847,211.05l-24.228-22.184c-0.653,0.945-1.243,1.897-1.764,2.846l21.724,24.263
					L113.847,211.05z"/>
				<path style="fill:#FFCA5F;" d="M95.494,182.357c-1.571,1.322-3.111,2.897-4.538,4.699l28.473,24.651l7.552-11.82
					C126.98,199.887,104.762,187.191,95.494,182.357z"/>
			</g>
			<g>
				
					<ellipse transform="matrix(0.6185 -0.7858 0.7858 0.6185 -120.3972 177.2251)" style="fill:#FFD88A;" cx="122.304" cy="212.595" rx="26.521" ry="13.605"/>
				<path style="fill:#4F454D;" d="M111.091,235.676c-2.167,0-4.053-0.591-5.555-1.773c-3.039-2.392-4.095-6.879-2.972-12.634
					c1.097-5.616,4.144-11.815,8.582-17.455c4.439-5.639,9.747-10.059,14.948-12.444c5.33-2.445,9.939-2.473,12.979-0.081
					c6.152,4.842,3.635,18.34-5.611,30.088c-4.439,5.639-9.747,10.059-14.948,12.444
					C115.819,235.057,113.308,235.676,111.091,235.676z M133.512,190.701c-2.04,0-4.383,0.583-6.922,1.748
					c-5.033,2.308-10.187,6.605-14.51,12.099c-4.324,5.494-7.29,11.513-8.35,16.948c-1.034,5.296-0.132,9.37,2.54,11.473
					c2.673,2.104,6.846,2.022,11.749-0.228c5.033-2.308,10.186-6.605,14.51-12.099c8.842-11.234,11.448-23.983,5.811-28.42
					C137.05,191.208,135.412,190.701,133.512,190.701z"/>
			</g>
			<g>
				<path style="fill:#D89612;" d="M138.706,191.755c-1.993-1.568-4.695-1.969-7.749-1.376c0.067,0.048,0.136,0.092,0.201,0.143
					c4.983,3.921,2.825,14.975-4.819,24.688s-17.881,14.408-22.864,10.487c-0.271-0.214-0.512-0.457-0.741-0.712
					c-0.101,3.674,0.916,6.678,3.169,8.451c5.904,4.647,18.034-0.917,27.093-12.427C142.054,209.499,144.61,196.402,138.706,191.755
					z"/>
				<path style="fill:#4F454D;" d="M111.091,235.676c-2.167,0-4.053-0.591-5.555-1.773c-2.331-1.834-3.505-4.924-3.395-8.934
					l0.041-1.485l0.994,1.104c0.25,0.279,0.456,0.477,0.667,0.642c2.226,1.752,5.713,1.68,9.819-0.203
					c4.234-1.942,8.571-5.559,12.211-10.184c3.64-4.625,6.136-9.69,7.029-14.262c0.866-4.433,0.116-7.839-2.11-9.591l-1.286-0.933
					l1.339-0.26c3.322-0.647,6.167-0.129,8.229,1.492c6.152,4.842,3.635,18.34-5.611,30.088
					c-4.439,5.639-9.747,10.059-14.948,12.444C115.819,235.057,113.308,235.676,111.091,235.676z M103.344,226.34
					c0.16,2.963,1.16,5.238,2.926,6.628c2.672,2.103,6.844,2.022,11.749-0.228c5.033-2.308,10.186-6.605,14.51-12.099
					c8.842-11.234,11.448-23.983,5.811-28.42c-1.529-1.204-3.598-1.696-6.033-1.445c1.987,2.156,2.613,5.665,1.761,10.031
					c-0.928,4.754-3.506,9.999-7.261,14.769c-3.754,4.77-8.247,8.51-12.649,10.529C109.762,228.122,105.937,228.201,103.344,226.34z
					"/>
			</g>
		</g>
		<g>
			<path style="fill:#FFFFFF;" d="M118.647,196.975c-0.035,0-0.068,0.005-0.103,0.005c-2.401,2.019-4.755,4.436-6.93,7.201
				c-1.86,2.363-3.43,4.793-4.724,7.203c1.115,5.473,5.955,9.591,11.758,9.591c6.627,0,12-5.373,12-12
				C130.647,202.348,125.274,196.975,118.647,196.975z"/>
			<path style="fill:#4F454D;" d="M118.647,221.569c-5.962,0-11.151-4.233-12.34-10.066l-0.042-0.21l0.102-0.189
				c1.363-2.538,2.972-4.99,4.78-7.289c2.147-2.727,4.507-5.179,7.015-7.288l0.162-0.136l0.323-0.008
				c6.944,0,12.594,5.65,12.594,12.594C131.241,215.919,125.591,221.569,118.647,221.569z M107.516,211.474
				c1.156,5.174,5.803,8.907,11.131,8.907c6.289,0,11.406-5.117,11.406-11.406c0-6.249-5.052-11.341-11.287-11.406
				c-2.387,2.027-4.636,4.374-6.687,6.979C110.359,206.736,108.824,209.065,107.516,211.474z"/>
		</g>
	</g>
	<g>
		<g>
			<g>
				<g>
					
						<linearGradient id="SVGID_00000066515402871844529100000007412254353795037604_" gradientUnits="userSpaceOnUse" x1="181.6875" y1="46.0625" x2="307.0377" y2="171.4127">
						<stop  offset="0" style="stop-color:#000000;stop-opacity:0.9535"/>
						<stop  offset="1" style="stop-color:#000000;stop-opacity:0"/>
					</linearGradient>
					<polygon style="opacity:0.4;fill:url(#SVGID_00000066515402871844529100000007412254353795037604_);" points="287.05,80.729 
						212.723,155.056 293.866,236.199 371.824,158.241 					"/>
					<path style="fill:#C4068E;" d="M284.271,155.8h-68.541c-1.949,0-3.529-1.58-3.529-3.529V83.729c0-1.949,1.58-3.529,3.529-3.529
						h68.541c1.949,0,3.529,1.58,3.529,3.529v68.541C287.8,154.22,286.22,155.8,284.271,155.8z"/>
					<path style="fill:#4F454D;" d="M284.27,156.3h-68.541c-2.222,0-4.029-1.808-4.029-4.029V83.729
						c0-2.222,1.808-4.029,4.029-4.029h68.541c2.222,0,4.029,1.808,4.029,4.029v68.541C288.3,154.492,286.492,156.3,284.27,156.3z
						 M215.729,80.7c-1.67,0-3.029,1.359-3.029,3.029v68.541c0,1.67,1.359,3.029,3.029,3.029h68.541c1.67,0,3.029-1.359,3.029-3.029
						V83.729c0-1.67-1.359-3.029-3.029-3.029H215.729z"/>
				</g>
				<g>
					<rect x="217.348" y="87.054" style="fill:#4F454D;" width="65.305" height="61.893"/>
					<path style="fill:#4F454D;" d="M283.152,149.446h-66.305V86.554h66.305V149.446z M217.848,148.446h64.305V87.554h-64.305
						V148.446z"/>
				</g>
				<g>
					<path style="fill:#EAF467;" d="M244.816,94.477h-0.044l-2.706,1.287l-0.546-2.487l3.753-1.746h2.749v14.183h-3.208V94.477z"/>
					<path style="fill:#EAF467;" d="M250.072,105.714v-2.007l1.833-1.659c3.099-2.771,4.604-4.364,4.648-6.022
						c0-1.157-0.698-2.073-2.335-2.073c-1.222,0-2.291,0.611-3.033,1.179l-0.938-2.378c1.069-0.808,2.727-1.462,4.647-1.462
						c3.208,0,4.975,1.877,4.975,4.451c0,2.378-1.724,4.277-3.775,6.109l-1.309,1.091v0.043h5.346v2.728H250.072z"/>
				</g>
				<g>
					<path style="fill:#17CEC9;" d="M252.322,137.529c-0.227-0.014-0.469,0-0.789,0.027c-1.807,0.147-2.61,1.07-2.837,2.087h0.04
						c0.428-0.441,1.03-0.696,1.847-0.696c1.458,0,2.689,1.03,2.689,2.837c0,1.726-1.325,3.145-3.211,3.145
						c-2.315,0-3.453-1.726-3.453-3.8c0-1.632,0.602-2.998,1.539-3.867c0.87-0.79,1.994-1.218,3.358-1.285
						c0.375-0.027,0.616-0.027,0.816-0.014V137.529z M251.212,141.892c0-0.803-0.428-1.499-1.298-1.499
						c-0.549,0-1.004,0.334-1.205,0.776c-0.054,0.107-0.08,0.268-0.08,0.509c0.04,0.923,0.481,1.753,1.405,1.753
						C250.757,143.431,251.212,142.775,251.212,141.892z"/>
				</g>
				<g>
					<path style="fill:#EF7E20;" d="M224.043,122.195c0.359,0.038,0.68,0.038,1.246,0c0.869-0.057,1.755-0.302,2.416-0.755
						c0.793-0.547,1.321-1.34,1.548-2.265l-0.057-0.019c-0.547,0.566-1.34,0.887-2.454,0.887c-2.076,0-3.832-1.454-3.832-3.832
						c0-2.397,1.925-4.417,4.624-4.417c3.152,0,4.644,2.416,4.644,5.285c0,2.548-0.812,4.417-2.152,5.644
						c-1.17,1.057-2.774,1.642-4.681,1.718c-0.491,0.038-0.981,0.019-1.302,0V122.195z M225.779,116.042
						c0,1.057,0.566,1.963,1.737,1.963c0.774,0,1.321-0.377,1.585-0.812c0.094-0.17,0.151-0.359,0.151-0.717
						c0-1.302-0.491-2.586-1.793-2.586C226.478,113.89,225.761,114.758,225.779,116.042z"/>
				</g>
				<g>
					<path style="fill:#F2B11D;" d="M267.781,124.349c0.742,0.385,2.445,1.099,4.149,1.099c2.171,0,3.271-1.044,3.271-2.391
						c0-1.759-1.759-2.556-3.601-2.556h-1.703v-2.996h1.621c1.401-0.027,3.188-0.55,3.188-2.061c0-1.072-0.879-1.869-2.638-1.869
						c-1.457,0-2.996,0.632-3.737,1.072l-0.853-3.023c1.072-0.687,3.216-1.347,5.524-1.347c3.82,0,5.936,2.006,5.936,4.452
						c0,1.896-1.072,3.38-3.27,4.149v0.055c2.143,0.385,3.875,2.006,3.875,4.342c0,3.16-2.775,5.469-7.311,5.469
						c-2.308,0-4.259-0.605-5.304-1.264L267.781,124.349z"/>
				</g>
				<g>
					<g>
						<path style="fill:#4B8BE8;" d="M269.611,97.673c-0.742-0.741-1.944-0.741-2.685,0l-18.637,18.835l1.841,1.841h-1.841v16.806
							c0,1.049,0.85,1.899,1.898,1.899c1.049,0,1.899-0.85,1.899-1.899v-16.806h-0.277l17.802-17.991
							C270.352,99.617,270.352,98.414,269.611,97.673z"/>
						<path style="fill:#4F454D;" d="M250.187,137.554c-1.322,0-2.398-1.076-2.398-2.399v-17.306h1.134l-1.339-1.339l18.987-19.189
							c0.938-0.938,2.46-0.936,3.394-0.002l0,0c0.934,0.936,0.934,2.457,0,3.392l-17.378,17.563v16.88
							C252.586,136.477,251.51,137.554,250.187,137.554z M248.789,118.849v16.306c0,0.771,0.627,1.399,1.398,1.399
							c0.771,0,1.399-0.627,1.399-1.399v-16.306H248.789z M248.994,116.506l1.978,1.978l18.283-18.478
							c0.547-0.547,0.547-1.435,0.002-1.98c-0.526-0.527-1.449-0.528-1.977,0L248.994,116.506z"/>
					</g>
					<g>
						<path style="fill:#C4068E;" d="M253.422,117.646c0,1.747-1.417,3.164-3.164,3.164c-1.748,0-3.164-1.417-3.164-3.164
							c0-1.748,1.417-3.164,3.164-3.164C252.005,114.482,253.422,115.899,253.422,117.646z"/>
						<path style="fill:#4F454D;" d="M250.257,121.269c-1.997,0-3.622-1.625-3.622-3.623c0-1.998,1.625-3.623,3.622-3.623
							c1.998,0,3.624,1.625,3.624,3.623C253.881,119.644,252.255,121.269,250.257,121.269z M250.257,114.94
							c-1.492,0-2.706,1.214-2.706,2.706c0,1.492,1.214,2.706,2.706,2.706s2.706-1.214,2.706-2.706
							C252.963,116.154,251.749,114.94,250.257,114.94z"/>
					</g>
				</g>
			</g>
			<g style="opacity:0.3;">
				<polygon style="fill:#FFFFFF;" points="282.5,123.139 282.5,111.866 245.564,148.802 256.837,148.802 				"/>
				<polygon style="fill:#FFFFFF;" points="282.5,87.198 277.07,87.198 217.5,146.768 217.5,148.802 229.626,148.802 282.5,95.928 
									"/>
				<polygon style="fill:#FFFFFF;" points="235.855,87.198 217.5,105.553 217.5,140.453 270.755,87.198 				"/>
			</g>
			<g>
				<path style="fill:#DDD3DB;" d="M280.833,88.237h-2.086c-0.27,0-0.489-0.219-0.489-0.489c0-0.27,0.22-0.489,0.489-0.489h2.086
					c0.269,0,0.489,0.219,0.489,0.489C281.322,88.019,281.102,88.237,280.833,88.237z"/>
			</g>
			<g>
				<path style="fill:#DDD3DB;" d="M218.081,148.74c-0.27,0-0.489-0.219-0.489-0.489V87.748c0-0.27,0.219-0.489,0.489-0.489h57.086
					c0.27,0,0.489,0.219,0.489,0.489c0,0.27-0.22,0.489-0.489,0.489h-56.598v60.014C218.569,148.521,218.351,148.74,218.081,148.74z
					"/>
			</g>
		</g>
	</g>
</g>
<g id="DESIGNED_BY_FREEPIK">
	<g id="XMLID_76_">
		<g id="XMLID_929_">
			<path id="XMLID_958_" style="fill:#4F454D;" d="M181.087,472.134c-0.246,0-0.435,0.085-0.567,0.255
				c-0.133,0.17-0.199,0.421-0.199,0.753v2.392c-0.305-0.331-0.617-0.579-0.937-0.739c-0.321-0.159-0.715-0.24-1.182-0.24
				c-0.807,0-1.458,0.283-1.953,0.848c-0.494,0.566-0.742,1.356-0.742,2.369c0,0.478,0.063,0.923,0.187,1.335
				c0.124,0.412,0.307,0.77,0.549,1.074c0.241,0.305,0.527,0.539,0.857,0.703c0.33,0.164,0.689,0.246,1.078,0.246
				c0.293,0,0.563-0.04,0.809-0.122c0.248-0.08,0.477-0.199,0.689-0.356c0.212-0.156,0.427-0.359,0.644-0.608v0.16
				c0,0.297,0.072,0.525,0.217,0.685c0.145,0.161,0.328,0.24,0.549,0.24c0.226,0,0.409-0.077,0.552-0.231
				c0.143-0.154,0.214-0.386,0.214-0.694v-7.146c0-0.305-0.066-0.534-0.199-0.691C181.521,472.212,181.332,472.134,181.087,472.134z
				 M180.021,478.974c-0.14,0.306-0.328,0.533-0.563,0.682c-0.236,0.149-0.496,0.223-0.781,0.223c-0.281,0-0.539-0.079-0.777-0.236
				c-0.237-0.155-0.424-0.387-0.561-0.696c-0.136-0.309-0.204-0.682-0.204-1.122c0-0.415,0.063-0.78,0.193-1.095
				c0.128-0.315,0.309-0.556,0.543-0.724c0.233-0.168,0.499-0.253,0.795-0.253c0.285,0,0.547,0.082,0.786,0.246
				c0.239,0.165,0.429,0.402,0.569,0.712c0.141,0.311,0.21,0.682,0.21,1.114C180.232,478.284,180.162,478.667,180.021,478.974z"/>
			<path id="XMLID_954_" style="fill:#4F454D;" d="M188.452,478.054c0.233-0.122,0.35-0.385,0.35-0.793
				c0-0.438-0.114-0.87-0.339-1.294c-0.225-0.423-0.564-0.769-1.018-1.035c-0.453-0.268-0.996-0.4-1.628-0.4
				c-0.487,0-0.93,0.078-1.33,0.234c-0.4,0.157-0.737,0.381-1.009,0.674c-0.273,0.293-0.48,0.644-0.623,1.054
				c-0.143,0.409-0.214,0.853-0.214,1.332c0,1.017,0.289,1.822,0.867,2.415c0.577,0.592,1.387,0.89,2.427,0.89
				c0.455,0,0.858-0.059,1.207-0.178c0.352-0.12,0.641-0.268,0.873-0.448c0.231-0.18,0.404-0.368,0.519-0.564
				c0.115-0.197,0.172-0.367,0.172-0.514c0-0.166-0.052-0.294-0.155-0.386c-0.102-0.09-0.237-0.137-0.403-0.137
				c-0.154,0-0.273,0.035-0.356,0.107c-0.203,0.19-0.366,0.34-0.493,0.452c-0.126,0.111-0.265,0.215-0.415,0.312
				c-0.15,0.098-0.305,0.167-0.466,0.214c-0.16,0.045-0.337,0.067-0.531,0.067c-0.289,0-0.553-0.07-0.792-0.213
				c-0.239-0.142-0.432-0.354-0.576-0.635c-0.145-0.281-0.219-0.605-0.222-0.973h3.168
				C187.89,478.235,188.219,478.174,188.452,478.054z M184.297,477.315c0.056-0.546,0.212-0.959,0.472-1.238
				c0.259-0.28,0.59-0.418,0.994-0.418c0.423,0,0.764,0.137,1.024,0.412c0.259,0.275,0.409,0.69,0.448,1.244H184.297z"/>
			<path id="XMLID_952_" style="fill:#4F454D;" d="M193.879,477.617c-0.319-0.17-0.729-0.316-1.231-0.439
				c-0.425-0.103-0.756-0.19-0.997-0.261c-0.242-0.07-0.434-0.16-0.577-0.27c-0.142-0.109-0.213-0.248-0.213-0.419
				c0-0.186,0.096-0.341,0.29-0.465c0.194-0.126,0.437-0.187,0.73-0.187c0.286,0,0.511,0.047,0.677,0.142
				c0.166,0.095,0.31,0.222,0.433,0.38c0.151,0.19,0.284,0.332,0.401,0.427c0.116,0.095,0.258,0.143,0.423,0.143
				c0.231,0,0.408-0.06,0.532-0.178c0.124-0.119,0.186-0.271,0.186-0.457c0-0.171-0.058-0.345-0.175-0.523
				c-0.116-0.178-0.286-0.34-0.51-0.486c-0.223-0.146-0.502-0.264-0.837-0.35c-0.333-0.088-0.71-0.131-1.13-0.131
				c-0.535,0-0.99,0.085-1.367,0.259c-0.378,0.172-0.665,0.403-0.859,0.691c-0.194,0.289-0.291,0.596-0.291,0.92
				c0,0.364,0.105,0.671,0.315,0.92c0.21,0.249,0.489,0.45,0.84,0.602c0.35,0.152,0.804,0.298,1.362,0.436
				c0.494,0.12,0.849,0.244,1.066,0.375c0.216,0.131,0.323,0.338,0.323,0.622c0,0.187-0.104,0.352-0.311,0.497
				c-0.208,0.144-0.474,0.216-0.798,0.216c-0.4,0-0.715-0.071-0.947-0.213c-0.231-0.143-0.431-0.358-0.597-0.647
				c-0.082-0.15-0.17-0.267-0.261-0.35c-0.091-0.082-0.221-0.124-0.391-0.124c-0.194,0-0.355,0.064-0.481,0.19
				c-0.128,0.126-0.19,0.278-0.19,0.456c0,0.27,0.099,0.537,0.297,0.805c0.198,0.266,0.505,0.489,0.92,0.667
				c0.415,0.178,0.914,0.267,1.495,0.267c0.61,0,1.127-0.082,1.552-0.246c0.425-0.164,0.747-0.406,0.964-0.724
				c0.218-0.319,0.327-0.702,0.327-1.149c0-0.297-0.082-0.56-0.246-0.791C194.438,477.988,194.196,477.787,193.879,477.617z"/>
			<path id="XMLID_950_" style="fill:#4F454D;" d="M196.486,474.543c-0.237,0-0.43,0.081-0.578,0.243
				c-0.149,0.162-0.222,0.404-0.222,0.724v4.635c0,0.317,0.073,0.56,0.222,0.73c0.148,0.17,0.341,0.255,0.578,0.255
				c0.238,0,0.433-0.083,0.588-0.249c0.154-0.166,0.231-0.412,0.231-0.737v-4.682c0-0.289-0.077-0.514-0.231-0.677
				C196.919,474.624,196.724,474.543,196.486,474.543z"/>
			<path id="XMLID_949_" style="fill:#4F454D;" d="M196.504,472.204c-0.217,0-0.409,0.073-0.573,0.223
				c-0.164,0.149-0.246,0.337-0.246,0.567c0,0.254,0.08,0.45,0.24,0.588c0.16,0.139,0.353,0.208,0.579,0.208
				c0.217,0,0.405-0.071,0.563-0.211c0.158-0.14,0.238-0.335,0.238-0.585c0-0.257-0.081-0.453-0.243-0.588
				C196.9,472.272,196.714,472.204,196.504,472.204z"/>
			<path id="XMLID_945_" style="fill:#4F454D;" d="M203.626,474.543c-0.217,0-0.395,0.078-0.535,0.231
				c-0.139,0.155-0.208,0.372-0.208,0.653v0.22c-0.289-0.376-0.602-0.652-0.937-0.829c-0.337-0.175-0.735-0.264-1.194-0.264
				c-0.384,0-0.736,0.068-1.056,0.204c-0.32,0.137-0.604,0.34-0.849,0.609c-0.245,0.268-0.433,0.599-0.566,0.992
				c-0.133,0.391-0.199,0.831-0.199,1.318c0,0.653,0.109,1.228,0.327,1.727c0.217,0.499,0.529,0.886,0.934,1.163
				c0.407,0.277,0.88,0.416,1.422,0.416c0.45,0,0.84-0.091,1.165-0.273c0.327-0.182,0.615-0.447,0.864-0.796
				c-0.008,0.531-0.02,0.915-0.035,1.155c-0.016,0.24-0.07,0.464-0.163,0.673c-0.093,0.21-0.255,0.374-0.486,0.49
				c-0.231,0.117-0.557,0.175-0.977,0.175c-0.205,0-0.388-0.02-0.546-0.056c-0.159-0.038-0.294-0.095-0.406-0.172
				c-0.112-0.078-0.216-0.17-0.309-0.279c-0.093-0.109-0.183-0.217-0.27-0.324c-0.178-0.209-0.386-0.314-0.624-0.314
				c-0.189,0-0.352,0.062-0.486,0.187c-0.135,0.124-0.202,0.285-0.202,0.483c0,0.262,0.119,0.516,0.356,0.763
				c0.238,0.247,0.576,0.449,1.014,0.605c0.439,0.156,0.938,0.234,1.496,0.234c0.609,0,1.119-0.061,1.528-0.184
				c0.409-0.122,0.741-0.311,0.994-0.563c0.253-0.254,0.437-0.574,0.552-0.961c0.115-0.389,0.173-0.851,0.173-1.389v-4.706
				c0-0.384-0.051-0.678-0.155-0.882C204.146,474.645,203.938,474.543,203.626,474.543z M202.599,478.908
				c-0.151,0.291-0.345,0.508-0.586,0.653c-0.239,0.144-0.493,0.217-0.762,0.217c-0.455,0-0.826-0.168-1.113-0.505
				c-0.287-0.336-0.43-0.834-0.43-1.49c0-0.649,0.139-1.15,0.418-1.502s0.649-0.528,1.113-0.528c0.475,0,0.857,0.184,1.148,0.553
				c0.291,0.367,0.436,0.882,0.436,1.543C202.825,478.265,202.749,478.617,202.599,478.908z"/>
			<path id="XMLID_944_" style="fill:#4F454D;" d="M210.978,475.611c-0.165-0.339-0.417-0.602-0.753-0.788
				c-0.337-0.186-0.718-0.28-1.146-0.28c-0.439,0-0.827,0.088-1.166,0.264c-0.339,0.176-0.65,0.452-0.935,0.828v-0.196
				c0-0.193-0.034-0.358-0.104-0.493c-0.07-0.134-0.162-0.234-0.276-0.302c-0.115-0.068-0.244-0.101-0.387-0.101
				c-0.233,0-0.417,0.076-0.552,0.228c-0.134,0.153-0.201,0.383-0.201,0.692v4.682c0,0.317,0.076,0.56,0.226,0.73
				c0.15,0.17,0.342,0.255,0.576,0.255c0.241,0,0.438-0.082,0.59-0.246c0.152-0.164,0.228-0.411,0.228-0.74v-2.03
				c0-0.661,0.04-1.111,0.119-1.353c0.11-0.3,0.284-0.537,0.522-0.71c0.237-0.173,0.5-0.258,0.788-0.258
				c0.444,0,0.74,0.142,0.888,0.425c0.148,0.283,0.223,0.691,0.223,1.225v2.7c0,0.317,0.074,0.56,0.226,0.73
				c0.15,0.17,0.345,0.255,0.587,0.255c0.238,0,0.431-0.083,0.579-0.249c0.149-0.166,0.223-0.412,0.223-0.737v-3.015
				c0-0.356-0.016-0.648-0.048-0.878C211.155,476.023,211.085,475.809,210.978,475.611z"/>
			<path id="XMLID_939_" style="fill:#4F454D;" d="M217.821,478.054c0.234-0.122,0.35-0.385,0.35-0.793
				c0-0.438-0.113-0.87-0.338-1.294c-0.226-0.423-0.565-0.769-1.019-1.035c-0.453-0.268-0.995-0.4-1.628-0.4
				c-0.487,0-0.93,0.078-1.33,0.234c-0.4,0.157-0.736,0.381-1.009,0.674c-0.273,0.293-0.481,0.644-0.624,1.054
				c-0.142,0.409-0.214,0.853-0.214,1.332c0,1.017,0.289,1.822,0.867,2.415c0.578,0.592,1.387,0.89,2.427,0.89
				c0.455,0,0.858-0.059,1.208-0.178c0.35-0.12,0.64-0.268,0.871-0.448c0.232-0.18,0.405-0.368,0.52-0.564
				c0.115-0.197,0.172-0.367,0.172-0.514c0-0.166-0.051-0.294-0.154-0.386c-0.103-0.09-0.238-0.137-0.404-0.137
				c-0.154,0-0.273,0.035-0.356,0.107c-0.201,0.19-0.366,0.34-0.492,0.452c-0.128,0.111-0.266,0.215-0.416,0.312
				c-0.151,0.098-0.306,0.167-0.466,0.214c-0.161,0.045-0.338,0.067-0.532,0.067c-0.289,0-0.553-0.07-0.792-0.213
				c-0.239-0.142-0.431-0.354-0.575-0.635c-0.145-0.281-0.218-0.605-0.223-0.973h3.169
				C217.26,478.235,217.588,478.174,217.821,478.054z M213.667,477.315c0.055-0.546,0.212-0.959,0.471-1.238
				c0.259-0.28,0.591-0.418,0.995-0.418c0.423,0,0.765,0.137,1.024,0.412c0.259,0.275,0.409,0.69,0.448,1.244H213.667z"/>
			<path id="XMLID_936_" style="fill:#4F454D;" d="M224.207,472.134c-0.245,0-0.434,0.085-0.567,0.255
				c-0.132,0.17-0.2,0.421-0.2,0.753v2.392c-0.304-0.331-0.616-0.579-0.937-0.739c-0.32-0.159-0.714-0.24-1.181-0.24
				c-0.807,0-1.458,0.283-1.953,0.848c-0.495,0.566-0.741,1.356-0.741,2.369c0,0.478,0.062,0.923,0.187,1.335
				c0.124,0.412,0.307,0.77,0.549,1.074c0.241,0.305,0.527,0.539,0.857,0.703c0.33,0.164,0.689,0.246,1.077,0.246
				c0.293,0,0.563-0.04,0.81-0.122c0.247-0.08,0.476-0.199,0.688-0.356c0.211-0.156,0.426-0.359,0.643-0.608v0.16
				c0,0.297,0.073,0.525,0.217,0.685c0.145,0.161,0.328,0.24,0.549,0.24c0.226,0,0.41-0.077,0.552-0.231
				c0.143-0.154,0.214-0.386,0.214-0.694v-7.146c0-0.305-0.066-0.534-0.199-0.691C224.64,472.212,224.452,472.134,224.207,472.134z
				 M223.141,478.974c-0.14,0.306-0.328,0.533-0.564,0.682c-0.235,0.149-0.495,0.223-0.781,0.223c-0.281,0-0.54-0.079-0.776-0.236
				c-0.238-0.155-0.425-0.387-0.561-0.696c-0.137-0.309-0.205-0.682-0.205-1.122c0-0.415,0.064-0.78,0.193-1.095
				c0.129-0.315,0.31-0.556,0.543-0.724c0.233-0.168,0.499-0.253,0.795-0.253c0.285,0,0.547,0.082,0.787,0.246
				c0.239,0.165,0.43,0.402,0.57,0.712c0.14,0.311,0.21,0.682,0.21,1.114C223.352,478.284,223.281,478.667,223.141,478.974z"/>
			<path id="XMLID_933_" style="fill:#4F454D;" d="M233.586,474.937c-0.406-0.254-0.878-0.382-1.416-0.382
				c-0.467,0-0.859,0.084-1.175,0.252c-0.317,0.168-0.627,0.411-0.932,0.727v-2.475c0-0.297-0.068-0.524-0.202-0.685
				c-0.134-0.16-0.326-0.24-0.576-0.24c-0.237,0-0.423,0.084-0.555,0.252c-0.132,0.168-0.198,0.416-0.198,0.745v7.075
				c0,0.305,0.068,0.535,0.205,0.692c0.136,0.156,0.319,0.234,0.549,0.234c0.226,0,0.412-0.077,0.558-0.234
				c0.146-0.157,0.22-0.388,0.22-0.692v-0.16c0.178,0.205,0.322,0.361,0.43,0.463c0.109,0.103,0.241,0.203,0.395,0.3
				c0.154,0.098,0.341,0.175,0.561,0.234c0.22,0.06,0.454,0.089,0.704,0.089c0.407,0,0.781-0.082,1.118-0.246
				c0.338-0.164,0.626-0.397,0.864-0.698c0.237-0.3,0.418-0.656,0.543-1.065c0.125-0.41,0.187-0.859,0.187-1.35
				c0-0.665-0.112-1.241-0.336-1.725C234.305,475.563,233.991,475.193,233.586,474.937z M232.796,479.348
				c-0.295,0.354-0.646,0.531-1.053,0.531c-0.479,0-0.866-0.174-1.161-0.521c-0.295-0.346-0.442-0.841-0.442-1.487
				c0-0.439,0.069-0.818,0.208-1.136c0.138-0.319,0.328-0.562,0.57-0.73c0.24-0.168,0.516-0.253,0.825-0.253
				c0.3,0,0.564,0.085,0.79,0.253c0.225,0.168,0.399,0.406,0.522,0.715c0.123,0.308,0.184,0.677,0.184,1.104
				C233.238,478.486,233.09,478.993,232.796,479.348z"/>
			<path id="XMLID_931_" style="fill:#4F454D;" d="M240.529,474.641c-0.112-0.066-0.23-0.098-0.353-0.098
				c-0.171,0-0.303,0.03-0.395,0.09c-0.093,0.058-0.181,0.173-0.264,0.344c-0.083,0.17-0.176,0.406-0.279,0.706l-1.3,3.71
				l-1.371-3.988c-0.091-0.277-0.195-0.489-0.314-0.638c-0.119-0.148-0.295-0.223-0.529-0.223c-0.135,0-0.264,0.035-0.389,0.107
				c-0.124,0.071-0.222,0.166-0.294,0.285c-0.071,0.118-0.107,0.247-0.107,0.385c0,0.13,0.062,0.341,0.184,0.628l1.994,5.022
				l-0.148,0.362c-0.111,0.265-0.209,0.466-0.294,0.601c-0.085,0.138-0.181,0.234-0.288,0.289c-0.107,0.056-0.254,0.084-0.44,0.084
				c-0.074,0-0.163-0.012-0.266-0.035c-0.083-0.024-0.168-0.037-0.256-0.037c-0.221,0-0.388,0.051-0.5,0.152
				c-0.114,0.101-0.17,0.245-0.17,0.43c0,0.273,0.118,0.461,0.356,0.564c0.237,0.103,0.593,0.154,1.068,0.154
				c0.487,0,0.873-0.074,1.161-0.223c0.287-0.148,0.517-0.361,0.691-0.638c0.174-0.277,0.353-0.658,0.535-1.145l2.113-5.532
				c0.051-0.142,0.095-0.283,0.13-0.421c0.037-0.139,0.061-0.246,0.078-0.321c0-0.123-0.032-0.239-0.093-0.35
				C240.729,474.794,240.642,474.706,240.529,474.641z"/>
		</g>
		<g id="XMLID_365_">
			<g id="XMLID_380_">
				<path id="XMLID_928_" style="fill:#4F454D;" d="M262.93,472.129c-0.533,0-0.954,0.069-1.26,0.204
					c-0.307,0.137-0.527,0.354-0.654,0.652c-0.129,0.301-0.191,0.702-0.191,1.211v0.487h-0.387c-0.543,0-0.815,0.192-0.815,0.582
					c0,0.174,0.066,0.316,0.196,0.424c0.132,0.111,0.316,0.163,0.558,0.163h0.447v4.294c0,0.319,0.074,0.563,0.227,0.73
					c0.154,0.17,0.344,0.254,0.574,0.254c0.243,0,0.438-0.084,0.589-0.254c0.156-0.167,0.231-0.411,0.231-0.73v-4.294h0.395
					c0.29,0,0.517-0.035,0.68-0.107c0.166-0.071,0.245-0.24,0.245-0.502c0-0.374-0.306-0.56-0.926-0.56h-0.395v-0.386
					c0-0.322,0.043-0.568,0.122-0.74c0.087-0.172,0.273-0.259,0.566-0.259c0.107,0,0.241,0.014,0.389,0.034
					c0.156,0.026,0.267,0.038,0.33,0.038c0.134,0,0.252-0.054,0.348-0.16c0.101-0.107,0.15-0.236,0.15-0.384
					C264.35,472.359,263.879,472.129,262.93,472.129z"/>
				<path id="XMLID_926_" style="fill:#4F454D;" d="M268.089,474.795c-0.32-0.171-0.648-0.255-0.99-0.255
					c-0.342,0-0.611,0.084-0.818,0.255c-0.203,0.171-0.4,0.421-0.592,0.755c-0.014-0.334-0.08-0.584-0.198-0.755
					c-0.119-0.171-0.312-0.255-0.583-0.255c-0.525,0-0.788,0.364-0.788,1.093v4.513c0,0.323,0.078,0.569,0.225,0.733
					c0.15,0.169,0.34,0.25,0.579,0.25c0.237,0,0.432-0.081,0.586-0.247c0.151-0.163,0.234-0.41,0.234-0.737v-1.355
					c0-0.486,0.014-0.899,0.045-1.239c0.034-0.336,0.09-0.63,0.17-0.878c0.084-0.243,0.201-0.425,0.353-0.553
					c0.149-0.122,0.345-0.186,0.582-0.186c0.172,0,0.374,0.037,0.602,0.108c0.226,0.073,0.37,0.112,0.433,0.112
					c0.157,0,0.304-0.064,0.441-0.195c0.135-0.126,0.204-0.292,0.204-0.488C268.571,475.193,268.411,474.966,268.089,474.795z"/>
				<path id="XMLID_922_" style="fill:#4F454D;" d="M274.176,478.052c0.233-0.122,0.351-0.386,0.351-0.791
					c0-0.441-0.113-0.87-0.339-1.296c-0.222-0.423-0.566-0.77-1.018-1.034c-0.453-0.27-0.997-0.403-1.629-0.403
					c-0.488,0-0.931,0.078-1.33,0.233c-0.402,0.156-0.735,0.38-1.007,0.674c-0.276,0.295-0.484,0.643-0.624,1.055
					c-0.144,0.41-0.217,0.855-0.217,1.333c0,1.017,0.292,1.823,0.87,2.418c0.577,0.593,1.385,0.888,2.429,0.888
					c0.453,0,0.857-0.06,1.207-0.179c0.349-0.117,0.639-0.268,0.874-0.446c0.233-0.182,0.405-0.368,0.522-0.566
					c0.112-0.195,0.167-0.365,0.167-0.512c0-0.167-0.048-0.294-0.152-0.386c-0.105-0.092-0.238-0.139-0.406-0.139
					c-0.152,0-0.271,0.038-0.355,0.109c-0.202,0.189-0.367,0.34-0.494,0.449c-0.128,0.113-0.264,0.217-0.415,0.312
					c-0.15,0.097-0.307,0.17-0.466,0.213c-0.16,0.048-0.336,0.069-0.531,0.069c-0.29,0-0.552-0.07-0.793-0.212
					c-0.24-0.145-0.431-0.356-0.578-0.635c-0.144-0.281-0.216-0.607-0.221-0.974h3.171
					C273.615,478.233,273.943,478.173,274.176,478.052z M270.021,477.312c0.054-0.546,0.213-0.957,0.472-1.236
					c0.259-0.28,0.591-0.417,0.995-0.417c0.426,0,0.764,0.136,1.025,0.413c0.26,0.273,0.407,0.688,0.446,1.241H270.021z"/>
				<path id="XMLID_919_" style="fill:#4F454D;" d="M280.916,478.052c0.231-0.122,0.351-0.386,0.351-0.791
					c0-0.441-0.116-0.87-0.34-1.296c-0.222-0.423-0.563-0.77-1.013-1.034c-0.46-0.27-1.003-0.403-1.633-0.403
					c-0.486,0-0.932,0.078-1.33,0.233c-0.401,0.156-0.736,0.38-1.009,0.674c-0.273,0.295-0.481,0.643-0.622,1.055
					c-0.145,0.41-0.217,0.855-0.217,1.333c0,1.017,0.29,1.823,0.868,2.418c0.58,0.593,1.387,0.888,2.429,0.888
					c0.453,0,0.86-0.06,1.208-0.179c0.347-0.117,0.641-0.268,0.872-0.446c0.234-0.182,0.408-0.368,0.519-0.566
					c0.117-0.195,0.171-0.365,0.171-0.512c0-0.167-0.047-0.294-0.15-0.386c-0.104-0.092-0.238-0.139-0.406-0.139
					c-0.151,0-0.27,0.038-0.355,0.109c-0.203,0.189-0.368,0.34-0.492,0.449c-0.128,0.113-0.264,0.217-0.415,0.312
					c-0.152,0.097-0.307,0.17-0.469,0.213c-0.157,0.048-0.336,0.069-0.528,0.069c-0.291,0-0.555-0.07-0.795-0.212
					c-0.239-0.145-0.431-0.356-0.575-0.635c-0.144-0.281-0.218-0.607-0.222-0.974h3.17
					C280.354,478.233,280.682,478.173,280.916,478.052z M276.762,477.312c0.053-0.546,0.211-0.957,0.469-1.236
					c0.261-0.28,0.592-0.417,0.995-0.417c0.425,0,0.763,0.136,1.027,0.413c0.257,0.273,0.407,0.688,0.447,1.241H276.762z"/>
				<path id="XMLID_390_" style="fill:#4F454D;" d="M286.926,474.937c-0.42-0.256-0.882-0.386-1.379-0.386
					c-0.415,0-0.79,0.089-1.114,0.267c-0.331,0.176-0.649,0.452-0.952,0.828v-0.195c0-0.296-0.071-0.519-0.218-0.677
					c-0.143-0.156-0.329-0.234-0.56-0.234c-0.233,0-0.419,0.078-0.553,0.228c-0.134,0.155-0.2,0.382-0.2,0.692v6.995
					c0,0.355,0.051,0.62,0.146,0.807c0.102,0.183,0.301,0.275,0.607,0.275c0.518,0,0.778-0.359,0.778-1.068v-2.433
					c0.287,0.358,0.586,0.634,0.901,0.816c0.314,0.187,0.704,0.279,1.165,0.279c0.385,0,0.741-0.076,1.079-0.227
					c0.334-0.153,0.622-0.372,0.868-0.654c0.245-0.283,0.441-0.632,0.58-1.05c0.14-0.419,0.21-0.878,0.21-1.376
					c0-0.677-0.122-1.261-0.366-1.758C287.675,475.572,287.346,475.196,286.926,474.937z M286.451,478.94
					c-0.137,0.313-0.32,0.546-0.552,0.704c-0.229,0.154-0.48,0.232-0.748,0.232c-0.454,0-0.828-0.179-1.133-0.536
					c-0.306-0.358-0.46-0.862-0.46-1.504c0-0.686,0.154-1.204,0.462-1.558c0.306-0.35,0.684-0.527,1.13-0.527
					c0.281,0,0.541,0.084,0.77,0.248c0.229,0.163,0.411,0.397,0.541,0.705c0.13,0.306,0.197,0.674,0.197,1.101
					C286.658,478.248,286.589,478.626,286.451,478.94z"/>
				<path id="XMLID_389_" style="fill:#4F454D;" d="M289.9,474.54c-0.238,0-0.428,0.079-0.58,0.245
					c-0.146,0.162-0.222,0.403-0.222,0.721v4.641c0,0.313,0.076,0.555,0.222,0.729c0.152,0.17,0.342,0.254,0.58,0.254
					c0.238,0,0.432-0.082,0.588-0.25c0.154-0.165,0.231-0.41,0.231-0.732v-4.688c0-0.287-0.078-0.512-0.231-0.675
					C290.332,474.619,290.138,474.54,289.9,474.54z"/>
				<path id="XMLID_388_" style="fill:#4F454D;" d="M289.917,472.199c-0.217,0-0.408,0.076-0.571,0.223
					c-0.166,0.149-0.248,0.339-0.248,0.568c0,0.253,0.081,0.447,0.242,0.586c0.159,0.138,0.35,0.209,0.577,0.209
					c0.22,0,0.408-0.071,0.566-0.209c0.157-0.14,0.236-0.335,0.236-0.585c0-0.257-0.082-0.454-0.244-0.591
					C290.314,472.267,290.13,472.199,289.917,472.199z"/>
				<path id="XMLID_387_" style="fill:#4F454D;" d="M297.258,479.569l-1.662-2.614l0.86-0.789c0.438-0.395,0.659-0.714,0.659-0.951
					c0-0.192-0.068-0.355-0.2-0.483c-0.139-0.128-0.306-0.193-0.51-0.193c-0.168,0-0.312,0.043-0.431,0.13
					c-0.121,0.086-0.29,0.251-0.517,0.486l-1.822,1.914v-3.933c0-0.329-0.074-0.582-0.221-0.751
					c-0.148-0.172-0.344-0.258-0.593-0.258c-0.255,0-0.457,0.093-0.596,0.283c-0.135,0.189-0.207,0.462-0.207,0.821v6.913
					c0,0.323,0.073,0.569,0.215,0.733c0.141,0.169,0.339,0.25,0.588,0.25c0.213,0,0.406-0.084,0.566-0.254
					c0.165-0.167,0.248-0.406,0.248-0.718v-1.291l0.88-0.83l1.427,2.353c0.181,0.278,0.33,0.471,0.436,0.58
					c0.106,0.109,0.26,0.16,0.458,0.16c0.226,0,0.413-0.073,0.553-0.221c0.142-0.151,0.214-0.352,0.214-0.61
					c0-0.089-0.029-0.19-0.082-0.289C297.47,479.909,297.379,479.765,297.258,479.569z"/>
				<path id="XMLID_386_" style="fill:#4F454D;" d="M299.45,479.343c-0.25,0-0.458,0.087-0.63,0.261
					c-0.17,0.173-0.256,0.381-0.256,0.622c0,0.287,0.09,0.51,0.268,0.665c0.179,0.159,0.389,0.238,0.633,0.238
					c0.237,0,0.444-0.079,0.624-0.241c0.174-0.157,0.264-0.38,0.264-0.662c0-0.243-0.089-0.454-0.264-0.626
					C299.909,479.43,299.698,479.343,299.45,479.343z"/>
				<path id="XMLID_385_" style="fill:#4F454D;" d="M306.835,478.417c-0.167,0-0.308,0.054-0.422,0.156
					c-0.113,0.104-0.219,0.245-0.318,0.427c-0.178,0.309-0.381,0.538-0.616,0.689c-0.231,0.15-0.509,0.225-0.835,0.225
					c-0.24,0-0.463-0.045-0.665-0.141c-0.201-0.093-0.372-0.229-0.516-0.409c-0.143-0.18-0.252-0.398-0.325-0.652
					c-0.075-0.256-0.114-0.537-0.114-0.842c0-0.646,0.147-1.161,0.439-1.534c0.294-0.375,0.682-0.561,1.158-0.561
					c0.333,0,0.607,0.075,0.821,0.227c0.219,0.148,0.424,0.375,0.622,0.674c0.109,0.158,0.209,0.269,0.299,0.339
					c0.09,0.068,0.201,0.104,0.338,0.104c0.202,0,0.377-0.068,0.524-0.203c0.143-0.135,0.214-0.3,0.214-0.492
					c0-0.192-0.063-0.397-0.192-0.617c-0.128-0.218-0.314-0.424-0.556-0.62c-0.245-0.192-0.54-0.352-0.89-0.474
					c-0.353-0.123-0.737-0.184-1.157-0.184c-0.674,0-1.26,0.138-1.746,0.419c-0.486,0.279-0.859,0.674-1.113,1.183
					c-0.259,0.511-0.387,1.098-0.387,1.765c0,0.981,0.281,1.764,0.841,2.349c0.562,0.582,1.344,0.876,2.348,0.876
					c0.469,0,0.893-0.065,1.269-0.192c0.377-0.126,0.688-0.295,0.934-0.502c0.248-0.207,0.434-0.425,0.554-0.656
					c0.121-0.229,0.182-0.446,0.182-0.646c0-0.169-0.066-0.331-0.198-0.481C307.198,478.493,307.033,478.417,306.835,478.417z"/>
				<path id="XMLID_382_" style="fill:#4F454D;" d="M313.647,475.453c-0.288-0.29-0.629-0.518-1.027-0.674
					c-0.4-0.161-0.846-0.239-1.336-0.239c-0.483,0-0.924,0.078-1.326,0.234c-0.399,0.158-0.737,0.38-1.019,0.669
					c-0.281,0.288-0.498,0.636-0.649,1.045c-0.146,0.408-0.224,0.858-0.224,1.349c0,0.485,0.076,0.929,0.219,1.332
					c0.152,0.402,0.369,0.75,0.657,1.048c0.285,0.292,0.627,0.521,1.016,0.676c0.392,0.159,0.835,0.239,1.326,0.239
					c0.492,0,0.937-0.08,1.336-0.234c0.394-0.158,0.735-0.382,1.02-0.675c0.286-0.291,0.502-0.641,0.656-1.05
					c0.146-0.408,0.222-0.855,0.222-1.336c0-0.489-0.075-0.932-0.221-1.339C314.148,476.096,313.933,475.749,313.647,475.453z
					 M312.455,479.368c-0.29,0.372-0.682,0.557-1.171,0.557c-0.324,0-0.605-0.086-0.846-0.253c-0.24-0.168-0.423-0.409-0.553-0.729
					c-0.129-0.317-0.194-0.684-0.194-1.108c0-0.428,0.066-0.803,0.197-1.125c0.131-0.321,0.314-0.563,0.556-0.727
					c0.242-0.164,0.522-0.246,0.84-0.246c0.489,0,0.881,0.182,1.171,0.555c0.289,0.367,0.436,0.881,0.436,1.543
					C312.891,478.487,312.744,478.999,312.455,479.368z"/>
				<path id="XMLID_381_" style="fill:#4F454D;" d="M323.569,474.813c-0.32-0.173-0.705-0.262-1.146-0.262
					c-0.381,0-0.726,0.081-1.039,0.241c-0.313,0.161-0.607,0.408-0.881,0.738c-0.191-0.326-0.431-0.572-0.725-0.735
					c-0.292-0.162-0.641-0.243-1.048-0.243c-0.394,0-0.748,0.079-1.07,0.241c-0.319,0.156-0.619,0.403-0.903,0.738v-0.153
					c0-0.261-0.074-0.466-0.222-0.616c-0.15-0.145-0.334-0.221-0.557-0.221c-0.227,0-0.412,0.078-0.555,0.239
					c-0.14,0.157-0.21,0.389-0.21,0.694v4.636c0,0.336,0.078,0.591,0.235,0.765c0.156,0.171,0.357,0.257,0.604,0.257
					c0.248,0,0.447-0.087,0.603-0.257c0.15-0.173,0.226-0.428,0.226-0.765v-2.188c0-0.684,0.086-1.206,0.253-1.566
					c0.168-0.369,0.516-0.551,1.048-0.551c0.263,0,0.459,0.072,0.581,0.22c0.122,0.142,0.198,0.331,0.226,0.552
					c0.027,0.226,0.04,0.544,0.04,0.953v2.581c0,0.341,0.078,0.594,0.232,0.767c0.148,0.17,0.349,0.255,0.594,0.255
					c0.254,0,0.455-0.085,0.611-0.255c0.156-0.173,0.231-0.426,0.231-0.767v-2.154c0-0.694,0.062-1.178,0.178-1.452
					c0.109-0.209,0.259-0.383,0.45-0.508c0.192-0.125,0.395-0.192,0.609-0.192c0.264,0,0.463,0.072,0.596,0.215
					c0.128,0.142,0.209,0.319,0.239,0.529c0.029,0.209,0.043,0.486,0.043,0.836v2.725c0,0.336,0.079,0.591,0.235,0.765
					c0.157,0.171,0.356,0.257,0.603,0.257c0.253,0,0.458-0.085,0.612-0.255c0.154-0.173,0.229-0.426,0.229-0.767v-3.163
					c0-0.629-0.068-1.091-0.206-1.385C324.128,475.237,323.888,474.987,323.569,474.813z"/>
			</g>
			<g id="XMLID_366_">
				<path id="XMLID_379_" style="fill:#4F454D;" d="M245.273,477.444c-0.001-0.004-0.001-0.006-0.001-0.011
					C245.272,477.438,245.272,477.44,245.273,477.444z"/>
				<path id="XMLID_378_" style="fill:#4F454D;" d="M245.355,477.961c0.001,0,0.001,0,0.001,0c-0.031-0.147-0.055-0.294-0.073-0.438
					C245.301,477.669,245.326,477.816,245.355,477.961z"/>
				<path id="XMLID_377_" style="fill:#4F454D;" d="M245.891,479.466c-0.004-0.006-0.007-0.013-0.01-0.021
					C245.885,479.452,245.888,479.46,245.891,479.466z"/>
				<path id="XMLID_376_" style="fill:#4F454D;" d="M245.84,479.366c-0.014-0.027-0.027-0.056-0.041-0.084
					C245.813,479.311,245.826,479.338,245.84,479.366z"/>
				<path id="XMLID_375_" style="fill:#4F454D;" d="M245.506,478.541c0.079,0.25,0.175,0.492,0.286,0.724
					c-0.113-0.236-0.206-0.479-0.284-0.724H245.506z"/>
				<path id="XMLID_374_" style="fill:#4F454D;" d="M250.736,470.681l-0.076-0.259c0.299-0.063,0.524-0.329,0.524-0.646
					c0-0.364-0.297-0.659-0.66-0.659c-0.365,0-0.66,0.295-0.66,0.659c0,0.317,0.225,0.583,0.522,0.646l0.084,0.289
					c-1.021,0.14-1.834,0.539-1.834,0.539l0.144,0.441c0.618-0.206,1.153-0.331,1.64-0.383c0.476-0.051,0.834-0.073,1.126-0.073
					c0.314,0,0.544,0.025,0.809,0.069l0.075-0.476C252.429,470.828,251.698,470.603,250.736,470.681z"/>
				<path id="XMLID_373_" style="fill:#4F454D;" d="M245.453,473.188c-0.017,0.024-0.497,0.465-0.876,1.28
					c-0.016-0.026-0.035-0.051-0.056-0.074c-0.113-0.124-0.272-0.187-0.473-0.184c-0.002,0-0.006,0-0.01,0
					c-0.124,0-0.21-0.042-0.266-0.092c0.055-0.071,0.089-0.16,0.089-0.258c0-0.231-0.187-0.419-0.419-0.419
					c-0.23,0-0.417,0.188-0.417,0.419c0,0.231,0.187,0.417,0.417,0.417c0.037,0,0.071-0.005,0.105-0.012
					c0.102,0.113,0.265,0.214,0.504,0.209c0.123-0.001,0.214,0.03,0.273,0.097c0.07,0.076,0.093,0.185,0.1,0.267
					c-0.001,0.002-0.001,0.004-0.002,0.004c-0.272,0.743-0.195,1.668-0.195,1.668l0.661,0.026c0.013-0.336,0.062-0.926,0.232-1.393
					c0.328-0.906,0.741-1.472,0.757-1.496l0.004-0.005c0.024-0.031,0.047-0.06,0.071-0.089l-0.196-0.142L245.453,473.188z"/>
				<path id="XMLID_372_" style="fill:#4F454D;" d="M257.294,471.787c-0.23,0-0.418,0.187-0.418,0.417
					c0,0.037,0.006,0.071,0.015,0.104c-0.115,0.104-0.214,0.267-0.211,0.507c0.002,0.123-0.03,0.212-0.096,0.273
					c-0.053,0.047-0.12,0.072-0.185,0.088c-0.492-0.689-1.097-1.109-1.097-1.109l-0.474,0.508c0.358,0.326,0.724,0.734,1.08,1.244
					c0.246,0.352,0.499,0.806,0.71,1.259l0.64-0.304c0,0-0.292-0.722-0.704-1.369c0.071-0.025,0.143-0.064,0.207-0.12
					c0.125-0.113,0.187-0.273,0.183-0.474c-0.001-0.13,0.042-0.218,0.093-0.276c0.071,0.054,0.16,0.089,0.257,0.089
					c0.232,0,0.419-0.187,0.419-0.419C257.712,471.974,257.525,471.787,257.294,471.787z"/>
				<path id="XMLID_371_" style="fill:#4F454D;" d="M255.633,477.537c-0.88,0.429-2.33,0.996-4.237,1.262
					c-0.749,0.104-1.474,0.142-2.143,0.142c-0.869,0-1.637-0.065-2.226-0.139c-0.672-0.085-1.198-0.188-1.52-0.261
					c0.078,0.245,0.171,0.487,0.284,0.724c0.002,0.006,0.005,0.013,0.008,0.017c0.014,0.027,0.027,0.056,0.041,0.084
					c0.013,0.027,0.027,0.054,0.041,0.079c0.004,0.007,0.007,0.015,0.01,0.021c0.189,0.356,0.417,0.684,0.675,0.968
					c0.9,0.984,1.816,1.139,1.825,1.141l0.015,0.002l0.013,0.005c0.009,0.003,0.821,0.265,2.057,0.265
					c1.216,0,2.409-0.245,3.545-0.729c0.842-0.431,1.639-1.085,2.033-1.668c0.305-0.452,0.526-0.934,0.656-1.434
					c0.07-0.266,0.125-0.693,0.092-1.141C256.555,477.042,256.163,477.279,255.633,477.537z"/>
				<path id="XMLID_367_" style="fill:#4F454D;" d="M252.322,471.655c-0.264-0.043-0.477-0.068-0.777-0.068
					c-0.279,0-0.626,0.023-1.089,0.071c-0.465,0.049-0.982,0.171-1.583,0.373c-0.842,0.282-1.604,0.724-2.204,1.28l-0.02,0.019
					c-0.089,0.081-0.275,0.254-0.488,0.525c-0.026,0.037-0.408,0.578-0.709,1.408c-0.226,0.622-0.216,1.527-0.216,1.537v0.002
					c0,0.212,0.012,0.423,0.035,0.632c0,0.005,0,0.007,0.001,0.011c0.003,0.027,0.007,0.053,0.01,0.079
					c0.018,0.144,0.043,0.291,0.074,0.438c0.438,0.112,3.048,0.721,5.966,0.314c1.829-0.255,3.218-0.795,4.061-1.204
					c0.701-0.34,1.151-0.647,1.325-0.774c-0.173-0.643-0.651-1.65-1.089-2.279C254.367,472.229,253.016,471.769,252.322,471.655z
					 M248.679,476.914c-0.971,0-1.759-0.787-1.759-1.759c0-0.972,0.788-1.76,1.759-1.76c0.973,0,1.761,0.788,1.761,1.76
					C250.439,476.127,249.652,476.914,248.679,476.914z M253.829,475.617c-0.601,0-1.089-0.489-1.089-1.09
					c0-0.602,0.487-1.089,1.089-1.089c0.601,0,1.089,0.487,1.089,1.089C254.918,475.128,254.429,475.617,253.829,475.617z"/>
			</g>
		</g>
	</g>
</g>
</svg>
